<svg width="442" height="138" viewBox="0 0 442 138" fill="none" xmlns="http://www.w3.org/2000/svg">
<rect x="0.733398" y="17.7493" width="102.501" height="102.501" rx="51.2507" fill="#0052CC"/>
<g clip-path="url(#clip0_6616_113187)">
<path fill-rule="evenodd" clip-rule="evenodd" d="M58.9109 57.1312C59.3047 56.2106 59.5231 55.1947 59.5231 54.1269C59.5231 49.9576 56.1936 46.5778 52.0865 46.5778C47.9795 46.5778 44.65 49.9576 44.65 54.1269C44.65 55.1947 44.8684 56.2106 45.2622 57.1312C43.9106 55.2424 41.7174 54.0143 39.2417 54.0143C35.1346 54.0143 31.8052 57.3942 31.8052 61.5635C31.8052 65.2871 34.4609 68.3811 37.9545 69C34.4609 69.6188 31.8052 72.7129 31.8052 76.4365C31.8052 80.6057 35.1346 83.9856 39.2417 83.9856C41.7174 83.9856 43.9106 82.7575 45.2622 80.8687C44.8684 81.7894 44.65 82.8053 44.65 83.8731C44.65 88.0422 47.9795 91.4222 52.0865 91.4222C56.1936 91.4222 59.5231 88.0422 59.5231 83.8731C59.5231 82.8053 59.3047 81.7894 58.9109 80.8687C60.2625 82.7575 62.4557 83.9856 64.9315 83.9856C69.0386 83.9856 72.3681 80.6057 72.3681 76.4365C72.3681 72.7129 69.7122 69.6188 66.2185 69C69.7122 68.3811 72.3681 65.2871 72.3681 61.5635C72.3681 57.3942 69.0386 54.0143 64.9315 54.0143C62.4557 54.0143 60.2625 55.2424 58.9109 57.1312ZM58.1071 79.4409C57.7134 78.5202 57.495 77.5042 57.495 76.4365C57.495 72.7129 60.1507 69.6188 63.6443 69C60.1507 68.3811 57.495 65.2871 57.495 61.5635C57.495 60.4957 57.7134 59.4798 58.1071 58.5591C56.7555 60.448 54.5624 61.6761 52.0865 61.6761C49.6108 61.6761 47.4177 60.448 46.066 58.5591C46.4599 59.4798 46.6782 60.4957 46.6782 61.5635C46.6782 65.2871 44.0225 68.3811 40.5289 69C44.0225 69.6188 46.6782 72.7129 46.6782 76.4365C46.6782 77.5042 46.4599 78.5202 46.066 79.4409C47.4177 77.552 49.6108 76.3237 52.0865 76.3237C54.5624 76.3237 56.7555 77.552 58.1071 79.4409Z" fill="#F8FAFB"/>
</g>
<path d="M139.321 106V98.5927L178.009 41.8865H138.97V32.3271H191.672V39.7344L152.934 96.4405H191.973V106H139.321ZM217.548 106.751C214.045 106.751 210.908 106.167 208.139 104.999C205.403 103.798 203.234 102.029 201.632 99.6938C200.031 97.3247 199.23 94.3885 199.23 90.885C199.23 87.8821 199.797 85.413 200.932 83.4777C202.099 81.5425 203.668 80.0076 205.636 78.8731C207.605 77.7387 209.84 76.8878 212.343 76.3206C214.845 75.72 217.431 75.2696 220.101 74.9693C223.437 74.5355 226.056 74.2019 227.958 73.9683C229.894 73.7014 231.262 73.301 232.062 72.7671C232.897 72.1999 233.314 71.2823 233.314 70.0144V69.7641C233.314 67.1949 232.379 65.1262 230.511 63.558C228.676 61.9564 226.09 61.1556 222.753 61.1556C219.483 61.1556 216.814 61.9397 214.745 63.5079C212.71 65.0762 211.575 67.0614 211.342 69.4638H200.531C200.731 66.1939 201.749 63.2744 203.584 60.7052C205.453 58.1359 208.022 56.1006 211.292 54.5991C214.562 53.0976 218.416 52.3469 222.853 52.3469C227.191 52.3469 230.945 53.0809 234.114 54.5491C237.284 56.0172 239.72 58.0525 241.422 60.6551C243.157 63.2577 244.024 66.294 244.024 69.7641V106H233.564V98.4926H233.364C232.596 99.9273 231.562 101.279 230.261 102.547C228.959 103.815 227.274 104.832 225.206 105.6C223.137 106.367 220.584 106.751 217.548 106.751ZM219.85 98.1923C222.887 98.1923 225.406 97.6584 227.408 96.5907C229.443 95.4896 230.945 94.0382 231.912 92.2364C232.88 90.4012 233.364 88.3992 233.364 86.2304V80.1244C232.663 80.6582 231.095 81.1587 228.659 81.6259C226.223 82.0596 223.604 82.4767 220.801 82.8771C218.899 83.144 217.114 83.5945 215.446 84.2284C213.811 84.829 212.476 85.6799 211.442 86.781C210.441 87.8487 209.941 89.2835 209.941 91.0852C209.974 93.3208 210.875 95.0725 212.643 96.3404C214.412 97.575 216.814 98.1923 219.85 98.1923ZM265.045 75.4698V106H254.284V53.1477H264.745V62.0565H264.945C266.113 59.2871 268.015 56.9848 270.651 55.1497C273.287 53.2811 276.673 52.3469 280.811 52.3469C284.481 52.3469 287.801 53.131 290.771 54.6992C293.774 56.2674 296.159 58.6031 297.928 61.7061C299.696 64.7759 300.58 68.5963 300.58 73.1675V106H289.87V74.4688C289.87 70.2646 288.769 67.0781 286.566 64.9093C284.398 62.7405 281.461 61.6561 277.758 61.6561C275.389 61.6561 273.237 62.1399 271.301 63.1075C269.399 64.0752 267.881 65.5766 266.747 67.612C265.612 69.6473 265.045 72.2666 265.045 75.4698ZM337.917 106.801C334.414 106.801 331.277 106.067 328.508 104.599C325.739 103.097 323.486 100.862 321.751 97.892H321.551V106H310.84V32.3271H321.601V61.2057H321.801C323.369 58.2694 325.572 56.0672 328.408 54.5991C331.244 53.0976 334.43 52.3469 337.967 52.3469C342.305 52.3469 346.142 53.448 349.479 55.6502C352.849 57.819 355.468 60.9387 357.336 65.0094C359.238 69.0801 360.189 73.9349 360.189 79.5738C360.189 85.1127 359.255 89.9341 357.387 94.0382C355.518 98.1089 352.915 101.262 349.579 103.498C346.242 105.7 342.355 106.801 337.917 106.801ZM335.365 97.7418C338.167 97.7418 340.62 97.0578 342.722 95.6898C344.824 94.2884 346.459 92.2364 347.627 89.5337C348.828 86.831 349.429 83.5111 349.429 79.5738C349.429 75.6032 348.828 72.2833 347.627 69.614C346.459 66.9113 344.824 64.876 342.722 63.5079C340.62 62.1399 338.167 61.4559 335.365 61.4559C332.428 61.4559 329.876 62.2066 327.707 63.7081C325.572 65.1762 323.92 67.2616 322.752 69.9643C321.584 72.667 321 75.8702 321 79.5738C321 83.2441 321.584 86.4473 322.752 89.1834C323.92 91.9194 325.572 94.0382 327.707 95.5396C329.876 97.0078 332.428 97.7418 335.365 97.7418ZM368.197 106V53.1477H378.908V106H368.197ZM373.553 43.8885C371.717 43.8885 370.149 43.2545 368.848 41.9866C367.547 40.7187 366.913 39.2005 366.946 37.4321C366.913 35.597 367.547 34.0621 368.848 32.8276C370.149 31.5596 371.717 30.9257 373.553 30.9257C375.388 30.9257 376.939 31.5596 378.207 32.8276C379.475 34.0621 380.126 35.597 380.159 37.4321C380.126 39.2005 379.475 40.7187 378.207 41.9866C376.939 43.2545 375.388 43.8885 373.553 43.8885ZM412.441 106.801C407.403 106.801 402.965 105.666 399.128 103.397C395.291 101.095 392.288 97.9087 390.119 93.838C387.983 89.7339 386.916 85.0126 386.916 79.6739C386.916 74.2686 387.983 69.5139 390.119 65.4098C392.288 61.3058 395.291 58.1026 399.128 55.8003C402.965 53.498 407.403 52.3469 412.441 52.3469C417.513 52.3469 421.95 53.498 425.754 55.8003C429.591 58.1026 432.578 61.3058 434.713 65.4098C436.882 69.5139 437.966 74.2686 437.966 79.6739C437.966 85.0126 436.899 89.7339 434.763 93.838C432.628 97.9087 429.641 101.095 425.804 103.397C421.967 105.666 417.513 106.801 412.441 106.801ZM412.441 97.6918C415.311 97.6918 417.846 96.941 420.049 95.4395C422.251 93.9381 423.986 91.836 425.254 89.1333C426.522 86.3973 427.156 83.2441 427.156 79.6739C427.156 76.0036 426.522 72.8171 425.254 70.1145C423.986 67.3784 422.251 65.243 420.049 63.7081C417.88 62.1399 415.344 61.3558 412.441 61.3558C409.538 61.3558 406.986 62.1232 404.783 63.6581C402.581 65.1929 400.846 67.3284 399.578 70.0644C398.344 72.8005 397.726 76.0036 397.726 79.6739C397.76 83.2441 398.394 86.3973 399.628 89.1333C400.896 91.836 402.631 93.9381 404.833 95.4395C407.036 96.941 409.572 97.6918 412.441 97.6918Z" fill="#1C2433"/>
<defs>
<clipPath id="clip0_6616_113187">
<rect width="44.8444" height="44.8444" fill="white" transform="translate(29.562 46.5778)"/>
</clipPath>
</defs>
</svg>
