<svg width="1440" height="1431" viewBox="0 0 1440 1431" fill="none" xmlns="http://www.w3.org/2000/svg">
<g clip-path="url(#clip0_6334_85369)">
<rect width="1440" height="1430" transform="translate(0 0.398438)" fill="url(#paint0_linear_6334_85369)"/>
<path d="M84.7059 2.39844H0V121.398M84.7059 2.39844V121.398M84.7059 2.39844H169.412M84.7059 121.398H0M84.7059 121.398H169.412M84.7059 121.398V240.398M0 121.398V240.398M169.412 2.39844V121.398M169.412 2.39844H254.118M169.412 121.398H254.118M169.412 121.398V240.398M254.118 2.39844V121.398M254.118 2.39844H338.824M254.118 121.398H338.824M254.118 121.398V240.398M338.824 2.39844V121.398M338.824 2.39844H423.529M338.824 121.398H423.529M338.824 121.398V240.398M423.529 2.39844V121.398M423.529 2.39844H508.235M423.529 121.398H508.235M423.529 121.398V240.398M508.235 2.39844V121.398M508.235 2.39844H592.941M508.235 121.398H592.941M508.235 121.398V240.398M592.941 2.39844V121.398M592.941 2.39844H677.647M592.941 121.398H677.647M592.941 121.398V240.398M677.647 2.39844V121.398M677.647 2.39844H762.353M677.647 121.398H762.353M677.647 121.398V240.398M762.353 2.39844V121.398M762.353 2.39844H847.059M762.353 121.398H847.059M762.353 121.398V240.398M847.059 2.39844V121.398M847.059 2.39844H931.765M847.059 121.398H931.765M847.059 121.398V240.398M931.765 2.39844V121.398M931.765 2.39844H1016.47M931.765 121.398H1016.47M931.765 121.398V240.398M1016.47 2.39844V121.398M1016.47 2.39844H1101.18M1016.47 121.398H1101.18M1016.47 121.398V240.398M1101.18 2.39844V121.398M1101.18 2.39844H1185.88M1101.18 121.398H1185.88M1101.18 121.398V240.398M1185.88 2.39844V121.398M1185.88 2.39844H1270.59M1185.88 121.398H1270.59M1185.88 121.398V240.398M1270.59 2.39844V121.398M1270.59 2.39844H1355.29M1270.59 121.398H1355.29M1270.59 121.398V240.398M1355.29 2.39844V121.398M1355.29 2.39844H1440V121.398M1355.29 121.398H1440M1355.29 121.398V240.398M1440 121.398V240.398M84.7059 240.398H0M84.7059 240.398H169.412M84.7059 240.398V359.398M0 240.398V359.398M169.412 240.398H254.118M169.412 240.398V359.398M254.118 240.398H338.824M254.118 240.398V359.398M338.824 240.398H423.529M338.824 240.398V359.398M423.529 240.398H508.235M423.529 240.398V359.398M508.235 240.398H592.941M508.235 240.398V359.398M592.941 240.398H677.647M592.941 240.398V359.398M677.647 240.398H762.353M677.647 240.398V359.398M762.353 240.398H847.059M762.353 240.398V359.398M847.059 240.398H931.765M847.059 240.398V359.398M931.765 240.398H1016.47M931.765 240.398V359.398M1016.47 240.398H1101.18M1016.47 240.398V359.398M1101.18 240.398H1185.88M1101.18 240.398V359.398M1185.88 240.398H1270.59M1185.88 240.398V359.398M1270.59 240.398H1355.29M1270.59 240.398V359.398M1355.29 240.398H1440M1355.29 240.398V359.398M1440 240.398V359.398M84.7059 359.398H0M84.7059 359.398H169.412M84.7059 359.398V478.398M0 359.398V478.398M169.412 359.398H254.118M169.412 359.398V478.398M254.118 359.398H338.824M254.118 359.398V478.398M338.824 359.398H423.529M338.824 359.398V478.398M423.529 359.398H508.235M423.529 359.398V478.398M508.235 359.398H592.941M508.235 359.398V478.398M592.941 359.398H677.647M592.941 359.398V478.398M677.647 359.398H762.353M677.647 359.398V478.398M762.353 359.398H847.059M762.353 359.398V478.398M847.059 359.398H931.765M847.059 359.398V478.398M931.765 359.398H1016.47M931.765 359.398V478.398M1016.47 359.398H1101.18M1016.47 359.398V478.398M1101.18 359.398H1185.88M1101.18 359.398V478.398M1185.88 359.398H1270.59M1185.88 359.398V478.398M1270.59 359.398H1355.29M1270.59 359.398V478.398M1355.29 359.398H1440M1355.29 359.398V478.398M1440 359.398V478.398M84.7059 478.398H0M84.7059 478.398H169.412M84.7059 478.398V597.398M0 478.398V597.398M169.412 478.398H254.118M169.412 478.398V597.398M254.118 478.398H338.824M254.118 478.398V597.398M338.824 478.398H423.529M338.824 478.398V597.398M423.529 478.398H508.235M423.529 478.398V597.398M508.235 478.398H592.941M508.235 478.398V597.398M592.941 478.398H677.647M592.941 478.398V597.398M677.647 478.398H762.353M677.647 478.398V597.398M762.353 478.398H847.059M762.353 478.398V597.398M847.059 478.398H931.765M847.059 478.398V597.398M931.765 478.398H1016.47M931.765 478.398V597.398M1016.47 478.398H1101.18M1016.47 478.398V597.398M1101.18 478.398H1185.88M1101.18 478.398V597.398M1185.88 478.398H1270.59M1185.88 478.398V597.398M1270.59 478.398H1355.29M1270.59 478.398V597.398M1355.29 478.398H1440M1355.29 478.398V597.398M1440 478.398V597.398M84.7059 597.398H0M84.7059 597.398H169.412M84.7059 597.398V716.398M0 597.398V716.398M169.412 597.398H254.118M169.412 597.398V716.398M254.118 597.398H338.824M254.118 597.398V716.398M338.824 597.398H423.529M338.824 597.398V716.398M423.529 597.398H508.235M423.529 597.398V716.398M508.235 597.398H592.941M508.235 597.398V716.398M592.941 597.398H677.647M592.941 597.398V716.398M677.647 597.398H762.353M677.647 597.398V716.398M762.353 597.398H847.059M762.353 597.398V716.398M847.059 597.398H931.765M847.059 597.398V716.398M931.765 597.398H1016.47M931.765 597.398V716.398M1016.47 597.398H1101.18M1016.47 597.398V716.398M1101.18 597.398H1185.88M1101.18 597.398V716.398M1185.88 597.398H1270.59M1185.88 597.398V716.398M1270.59 597.398H1355.29M1270.59 597.398V716.398M1355.29 597.398H1440M1355.29 597.398V716.398M1440 597.398V716.398M84.7059 716.398H0M84.7059 716.398H169.412M84.7059 716.398V835.398M0 716.398V835.398M169.412 716.398H254.118M169.412 716.398V835.398M254.118 716.398H338.824M254.118 716.398V835.398M338.824 716.398H423.529M338.824 716.398V835.398M423.529 716.398H508.235M423.529 716.398V835.398M508.235 716.398H592.941M508.235 716.398V835.398M592.941 716.398H677.647M592.941 716.398V835.398M677.647 716.398H762.353M677.647 716.398V835.398M762.353 716.398H847.059M762.353 716.398V835.398M847.059 716.398H931.765M847.059 716.398V835.398M931.765 716.398H1016.47M931.765 716.398V835.398M1016.47 716.398H1101.18M1016.47 716.398V835.398M1101.18 716.398H1185.88M1101.18 716.398V835.398M1185.88 716.398H1270.59M1185.88 716.398V835.398M1270.59 716.398H1355.29M1270.59 716.398V835.398M1355.29 716.398H1440M1355.29 716.398V835.398M1440 716.398V835.398M84.7059 835.398H0M84.7059 835.398H169.412M84.7059 835.398V954.398M0 835.398V954.398M169.412 835.398H254.118M169.412 835.398V954.398M254.118 835.398H338.824M254.118 835.398V954.398M338.824 835.398H423.529M338.824 835.398V954.398M423.529 835.398H508.235M423.529 835.398V954.398M508.235 835.398H592.941M508.235 835.398V954.398M592.941 835.398H677.647M592.941 835.398V954.398M677.647 835.398H762.353M677.647 835.398V954.398M762.353 835.398H847.059M762.353 835.398V954.398M847.059 835.398H931.765M847.059 835.398V954.398M931.765 835.398H1016.47M931.765 835.398V954.398M1016.47 835.398H1101.18M1016.47 835.398V954.398M1101.18 835.398H1185.88M1101.18 835.398V954.398M1185.88 835.398H1270.59M1185.88 835.398V954.398M1270.59 835.398H1355.29M1270.59 835.398V954.398M1355.29 835.398H1440M1355.29 835.398V954.398M1440 835.398V954.398M84.7059 954.398H0M84.7059 954.398H169.412M84.7059 954.398V1073.4M0 954.398V1073.4M169.412 954.398H254.118M169.412 954.398V1073.4M254.118 954.398H338.824M254.118 954.398V1073.4M338.824 954.398H423.529M338.824 954.398V1073.4M423.529 954.398H508.235M423.529 954.398V1073.4M508.235 954.398H592.941M508.235 954.398V1073.4M592.941 954.398H677.647M592.941 954.398V1073.4M677.647 954.398H762.353M677.647 954.398V1073.4M762.353 954.398H847.059M762.353 954.398V1073.4M847.059 954.398H931.765M847.059 954.398V1073.4M931.765 954.398H1016.47M931.765 954.398V1073.4M1016.47 954.398H1101.18M1016.47 954.398V1073.4M1101.18 954.398H1185.88M1101.18 954.398V1073.4M1185.88 954.398H1270.59M1185.88 954.398V1073.4M1270.59 954.398H1355.29M1270.59 954.398V1073.4M1355.29 954.398H1440M1355.29 954.398V1073.4M1440 954.398V1073.4M84.7059 1073.4H0M84.7059 1073.4H169.412M84.7059 1073.4V1192.4M0 1073.4V1192.4M169.412 1073.4H254.118M169.412 1073.4V1192.4M254.118 1073.4H338.824M254.118 1073.4V1192.4M338.824 1073.4H423.529M338.824 1073.4V1192.4M423.529 1073.4H508.235M423.529 1073.4V1192.4M508.235 1073.4H592.941M508.235 1073.4V1192.4M592.941 1073.4H677.647M592.941 1073.4V1192.4M677.647 1073.4H762.353M677.647 1073.4V1192.4M762.353 1073.4H847.059M762.353 1073.4V1192.4M847.059 1073.4H931.765M847.059 1073.4V1192.4M931.765 1073.4H1016.47M931.765 1073.4V1192.4M1016.47 1073.4H1101.18M1016.47 1073.4V1192.4M1101.18 1073.4H1185.88M1101.18 1073.4V1192.4M1185.88 1073.4H1270.59M1185.88 1073.4V1192.4M1270.59 1073.4H1355.29M1270.59 1073.4V1192.4M1355.29 1073.4H1440M1355.29 1073.4V1192.4M1440 1073.4V1192.4M84.7059 1192.4H0M84.7059 1192.4H169.412M84.7059 1192.4V1311.4M0 1192.4V1311.4M169.412 1192.4H254.118M169.412 1192.4V1311.4M254.118 1192.4H338.824M254.118 1192.4V1311.4M338.824 1192.4H423.529M338.824 1192.4V1311.4M423.529 1192.4H508.235M423.529 1192.4V1311.4M508.235 1192.4H592.941M508.235 1192.4V1311.4M592.941 1192.4H677.647M592.941 1192.4V1311.4M677.647 1192.4H762.353M677.647 1192.4V1311.4M762.353 1192.4H847.059M762.353 1192.4V1311.4M847.059 1192.4H931.765M847.059 1192.4V1311.4M931.765 1192.4H1016.47M931.765 1192.4V1311.4M1016.47 1192.4H1101.18M1016.47 1192.4V1311.4M1101.18 1192.4H1185.88M1101.18 1192.4V1311.4M1185.88 1192.4H1270.59M1185.88 1192.4V1311.4M1270.59 1192.4H1355.29M1270.59 1192.4V1311.4M1355.29 1192.4H1440M1355.29 1192.4V1311.4M1440 1192.4V1311.4M84.7059 1311.4H0M84.7059 1311.4H169.412M84.7059 1311.4V1430.4M0 1311.4V1430.4H84.7059M169.412 1311.4H254.118M169.412 1311.4V1430.4M254.118 1311.4H338.824M254.118 1311.4V1430.4M338.824 1311.4H423.529M338.824 1311.4V1430.4M423.529 1311.4H508.235M423.529 1311.4V1430.4M508.235 1311.4H592.941M508.235 1311.4V1430.4M592.941 1311.4H677.647M592.941 1311.4V1430.4M677.647 1311.4H762.353M677.647 1311.4V1430.4M762.353 1311.4H847.059M762.353 1311.4V1430.4M847.059 1311.4H931.765M847.059 1311.4V1430.4M931.765 1311.4H1016.47M931.765 1311.4V1430.4M1016.47 1311.4H1101.18M1016.47 1311.4V1430.4M1101.18 1311.4H1185.88M1101.18 1311.4V1430.4M1185.88 1311.4H1270.59M1185.88 1311.4V1430.4M1270.59 1311.4H1355.29M1270.59 1311.4V1430.4M1355.29 1311.4H1440M1355.29 1311.4V1430.4M1440 1311.4V1430.4H1355.29M84.7059 1430.4H169.412M169.412 1430.4H254.118M254.118 1430.4H338.824M338.824 1430.4H423.529M423.529 1430.4H508.235M508.235 1430.4H592.941M592.941 1430.4H677.647M677.647 1430.4H762.353M762.353 1430.4H847.059M847.059 1430.4H931.765M931.765 1430.4H1016.47M1016.47 1430.4H1101.18M1101.18 1430.4H1185.88M1185.88 1430.4H1270.59M1270.59 1430.4H1355.29" stroke="url(#paint1_radial_6334_85369)" stroke-opacity="0.07" stroke-width="2"/>
<path d="M164.971 1116.14C165.374 1115.24 164.508 1114.38 163.612 1114.78C163.418 1114.87 163.269 1115.02 163.179 1115.21C162.761 1116.11 163.642 1116.98 164.538 1116.58C164.732 1116.49 164.881 1116.34 164.971 1116.14Z" fill="white" fill-opacity="0.2"/>
<path d="M573.611 1203.18C574.015 1202.28 573.147 1201.42 572.249 1201.82C572.054 1201.91 571.905 1202.06 571.815 1202.25C571.411 1203.15 572.279 1204.02 573.177 1203.62C573.371 1203.53 573.521 1203.38 573.611 1203.18Z" fill="white" fill-opacity="0.2"/>
<path d="M485.396 1059.72C485.799 1058.82 484.934 1057.95 484.038 1058.36C483.844 1058.45 483.695 1058.6 483.605 1058.79C483.187 1059.69 484.068 1060.56 484.963 1060.15C485.158 1060.06 485.307 1059.91 485.396 1059.72Z" fill="white" fill-opacity="0.2"/>
<path d="M365.58 370.401C365.998 369.503 365.118 368.635 364.222 369.039C364.028 369.129 363.879 369.279 363.789 369.474C363.386 370.372 364.252 371.24 365.148 370.836C365.342 370.746 365.491 370.596 365.58 370.401Z" fill="white" fill-opacity="0.2"/>
<path d="M439.471 331.815C439.889 330.919 439.008 330.039 438.113 330.457C437.919 330.546 437.769 330.695 437.68 330.89C437.277 331.785 438.143 332.651 439.038 332.248C439.232 332.158 439.382 332.009 439.471 331.815Z" fill="white" fill-opacity="0.2"/>
<path d="M1301.1 21.924C1301.51 21.0259 1300.64 20.1578 1299.74 20.5619C1299.55 20.6517 1299.4 20.8014 1299.31 20.996C1298.9 21.894 1299.77 22.7621 1300.67 22.358C1300.86 22.2682 1301.01 22.1185 1301.1 21.924Z" fill="white" fill-opacity="0.4"/>
<path d="M919.984 1263.93C920.388 1263.03 919.52 1262.16 918.622 1262.57C918.427 1262.66 918.278 1262.81 918.188 1263C917.784 1263.9 918.652 1264.77 919.55 1264.36C919.745 1264.28 919.894 1264.13 919.984 1263.93Z" fill="white" fill-opacity="0.4"/>
<path d="M1021.2 1349.71C1021.62 1348.81 1020.74 1347.94 1019.84 1348.35C1019.65 1348.44 1019.5 1348.59 1019.41 1348.78C1019.01 1349.68 1019.87 1350.55 1020.77 1350.14C1020.96 1350.05 1021.11 1349.9 1021.2 1349.71Z" fill="white" fill-opacity="0.2"/>
<path d="M1230.22 1007.47C1230.64 1006.57 1229.76 1005.7 1228.86 1006.11C1228.67 1006.2 1228.52 1006.35 1228.43 1006.54C1228.03 1007.44 1228.89 1008.31 1229.79 1007.9C1229.98 1007.82 1230.13 1007.67 1230.22 1007.47Z" fill="white" fill-opacity="0.2"/>
<path d="M1278.49 463.381C1278.91 462.483 1278.03 461.615 1277.13 462.019C1276.94 462.109 1276.79 462.258 1276.7 462.453C1276.3 463.351 1277.16 464.219 1278.06 463.815C1278.25 463.725 1278.4 463.576 1278.49 463.381Z" fill="white" fill-opacity="0.2"/>
<path d="M1229.19 52.8263C1229.59 51.9282 1228.73 51.0601 1227.83 51.4642C1227.64 51.5541 1227.49 51.7037 1227.4 51.8983C1226.98 52.7964 1227.86 53.6645 1228.76 53.2604C1228.95 53.1706 1229.1 53.0209 1229.19 52.8263Z" fill="white" fill-opacity="0.2"/>
<path d="M1314.76 152.486C1315.16 151.588 1314.29 150.72 1313.39 151.124C1313.2 151.214 1313.05 151.364 1312.96 151.558C1312.56 152.457 1313.42 153.325 1314.32 152.921C1314.52 152.831 1314.67 152.681 1314.76 152.486Z" fill="white" fill-opacity="0.2"/>
<path d="M1221.46 232.831C1221.88 231.933 1221 231.065 1220.1 231.469C1219.91 231.559 1219.76 231.709 1219.67 231.903C1219.27 232.801 1220.13 233.669 1221.03 233.265C1221.22 233.175 1221.37 233.026 1221.46 232.831Z" fill="white" fill-opacity="0.2"/>
<path d="M1223.74 591.037C1224.15 590.139 1223.27 589.271 1222.38 589.675C1222.18 589.765 1222.03 589.915 1221.95 590.109C1221.54 591.007 1222.41 591.875 1223.3 591.471C1223.5 591.381 1223.65 591.232 1223.74 591.037Z" fill="white" fill-opacity="0.2"/>
<path d="M1403.49 647.948C1403.9 647.05 1403.03 646.182 1402.13 646.586C1401.94 646.676 1401.79 646.826 1401.7 647.02C1401.28 647.918 1402.16 648.787 1403.06 648.382C1403.25 648.293 1403.4 648.143 1403.49 647.948Z" fill="white" fill-opacity="0.2"/>
<path d="M448.992 678.077C449.395 677.179 448.529 676.311 447.634 676.715C447.44 676.805 447.29 676.955 447.201 677.149C446.783 678.047 447.664 678.915 448.559 678.511C448.753 678.422 448.903 678.272 448.992 678.077Z" fill="white" fill-opacity="0.2"/>
<path d="M736.82 1176.89C737.224 1175.99 736.356 1175.12 735.458 1175.53C735.263 1175.62 735.114 1175.77 735.024 1175.96C734.62 1176.86 735.488 1177.73 736.386 1177.32C736.58 1177.23 736.73 1177.08 736.82 1176.89Z" fill="white" fill-opacity="0.2"/>
<path d="M582.524 1046.47C582.942 1045.57 582.061 1044.7 581.165 1045.11C580.971 1045.2 580.822 1045.35 580.733 1045.54C580.329 1046.44 581.195 1047.31 582.091 1046.9C582.285 1046.81 582.434 1046.66 582.524 1046.47Z" fill="white" fill-opacity="0.2"/>
<path d="M292.963 1246.45C293.366 1245.55 292.5 1244.68 291.604 1245.08C291.41 1245.17 291.261 1245.32 291.171 1245.52C290.753 1246.42 291.634 1247.28 292.53 1246.88C292.724 1246.79 292.873 1246.64 292.963 1246.45Z" fill="white" fill-opacity="0.2"/>
<path d="M978 28.6202C978.418 27.7222 977.538 26.8541 976.642 27.2582C976.448 27.348 976.299 27.4977 976.209 27.6922C975.806 28.5903 976.672 29.4584 977.568 29.0543C977.762 28.9645 977.911 28.8148 978 28.6202Z" fill="white" fill-opacity="0.4"/>
<path d="M451.267 1357.67C451.671 1356.77 450.805 1355.9 449.909 1356.3C449.715 1356.39 449.566 1356.54 449.476 1356.74C449.058 1357.64 449.939 1358.5 450.835 1358.1C451.029 1358.01 451.178 1357.86 451.267 1357.67Z" fill="white" fill-opacity="0.4"/>
<path d="M301.09 182.616C301.508 181.718 300.627 180.85 299.732 181.254C299.538 181.344 299.389 181.494 299.299 181.688C298.896 182.586 299.762 183.455 300.657 183.05C300.851 182.961 301.001 182.811 301.09 182.616Z" fill="white" fill-opacity="0.2"/>
<path d="M441.027 58.7501C441.43 57.8521 440.564 56.9839 439.669 57.3881C439.475 57.4779 439.325 57.6275 439.236 57.8221C438.818 58.7202 439.699 59.5883 440.594 59.1842C440.788 59.0944 440.938 58.9447 441.027 58.7501Z" fill="white" fill-opacity="0.4"/>
<path d="M112.242 932.504C112.646 931.606 111.778 930.738 110.88 931.142C110.685 931.232 110.535 931.381 110.446 931.576C110.042 932.474 110.91 933.342 111.808 932.938C112.002 932.848 112.152 932.699 112.242 932.504Z" fill="white" fill-opacity="0.4"/>
<path d="M180.067 866.041C180.485 865.143 179.604 864.275 178.708 864.679C178.514 864.769 178.365 864.919 178.276 865.113C177.872 866.011 178.738 866.879 179.634 866.475C179.828 866.385 179.977 866.236 180.067 866.041Z" fill="white" fill-opacity="0.2"/>
<path d="M189.603 477.215C190.007 476.317 189.139 475.449 188.241 475.853C188.047 475.943 187.897 476.092 187.807 476.287C187.403 477.185 188.271 478.053 189.169 477.649C189.364 477.559 189.513 477.41 189.603 477.215Z" fill="white" fill-opacity="0.2"/>
<path d="M181.641 654.644C182.044 653.746 181.178 652.878 180.282 653.282C180.088 653.371 179.939 653.521 179.849 653.716C179.431 654.614 180.312 655.482 181.208 655.078C181.402 654.988 181.551 654.838 181.641 654.644Z" fill="white" fill-opacity="0.2"/>
<path d="M283.916 1371.65C284.319 1370.75 283.453 1369.89 282.557 1370.29C282.363 1370.38 282.214 1370.53 282.125 1370.72C281.707 1371.62 282.587 1372.49 283.483 1372.09C283.677 1372 283.826 1371.85 283.916 1371.65Z" fill="white" fill-opacity="0.4"/>
<path d="M439.082 871.341C439.486 870.443 438.618 869.575 437.72 869.979C437.525 870.069 437.375 870.218 437.286 870.413C436.881 871.311 437.75 872.179 438.648 871.775C438.842 871.685 438.992 871.536 439.082 871.341Z" fill="white" fill-opacity="0.2"/>
<path d="M400.847 737.09C401.251 736.192 400.383 735.324 399.485 735.728C399.291 735.818 399.141 735.967 399.051 736.162C398.647 737.06 399.515 737.928 400.413 737.524C400.608 737.434 400.757 737.285 400.847 737.09Z" fill="white" fill-opacity="0.4"/>
<path d="M249.401 491.04C250.299 491.443 251.167 490.577 250.763 489.682C250.673 489.487 250.524 489.338 250.329 489.249C249.431 488.831 248.563 489.711 248.967 490.607C249.057 490.801 249.207 490.95 249.401 491.04Z" fill="white" fill-opacity="0.4"/>
<path d="M296.992 994.573C297.395 993.675 296.529 992.807 295.634 993.211C295.44 993.301 295.29 993.451 295.201 993.645C294.783 994.543 295.664 995.412 296.559 995.007C296.753 994.918 296.903 994.768 296.992 994.573Z" fill="white" fill-opacity="0.2"/>
<path d="M656.047 1140.06C656.45 1139.17 655.584 1138.3 654.688 1138.7C654.494 1138.79 654.345 1138.94 654.255 1139.14C653.837 1140.03 654.718 1140.9 655.614 1140.5C655.808 1140.41 655.957 1140.26 656.047 1140.06Z" fill="white" fill-opacity="0.2"/>
<path d="M814.182 1397.83C814.585 1396.94 813.719 1396.07 812.823 1396.47C812.629 1396.56 812.48 1396.71 812.39 1396.91C811.972 1397.8 812.853 1398.68 813.749 1398.27C813.943 1398.18 814.092 1398.03 814.182 1397.83Z" fill="white" fill-opacity="0.2"/>
<path d="M736.82 1294.06C737.224 1293.16 736.356 1292.29 735.458 1292.7C735.263 1292.79 735.114 1292.94 735.024 1293.13C734.62 1294.03 735.488 1294.9 736.386 1294.49C736.58 1294.4 736.73 1294.25 736.82 1294.06Z" fill="white" fill-opacity="0.4"/>
<path d="M1080.91 828.601C1081.32 827.703 1080.45 826.835 1079.56 827.239C1079.36 827.328 1079.21 827.478 1079.12 827.673C1078.7 828.571 1079.59 829.439 1080.48 829.035C1080.68 828.945 1080.82 828.795 1080.91 828.601Z" fill="white" fill-opacity="0.4"/>
<path d="M431.299 295.734C431.702 294.835 430.836 293.967 429.94 294.371C429.746 294.461 429.597 294.611 429.507 294.806C429.089 295.704 429.97 296.572 430.866 296.168C431.06 296.078 431.209 295.928 431.299 295.734Z" fill="white" fill-opacity="0.2"/>
<path d="M1162.65 360.125C1163.05 359.227 1162.19 358.359 1161.29 358.763C1161.1 358.853 1160.95 359.003 1160.86 359.197C1160.44 360.095 1161.32 360.963 1162.22 360.559C1162.41 360.469 1162.56 360.32 1162.65 360.125Z" fill="white" fill-opacity="0.2"/>
<path d="M1179.4 83.6417C1179.8 82.7461 1178.94 81.8803 1178.04 82.2833C1177.85 82.3729 1177.7 82.5222 1177.61 82.7162C1177.19 83.6119 1178.07 84.4926 1178.97 84.0746C1179.16 83.9851 1179.31 83.8358 1179.4 83.6417Z" fill="white" fill-opacity="0.2"/>
<path d="M1100.99 693.102C1101.39 692.204 1100.52 691.336 1099.63 691.74C1099.43 691.829 1099.28 691.979 1099.19 692.174C1098.78 693.072 1099.66 693.94 1100.55 693.536C1100.75 693.446 1100.9 693.296 1100.99 693.102Z" fill="white" fill-opacity="0.2"/>
<path d="M109.967 28.6163C110.37 27.7207 109.504 26.8549 108.608 27.2579C108.414 27.3475 108.265 27.4968 108.175 27.6908C107.757 28.5865 108.638 29.4672 109.534 29.0492C109.728 28.9597 109.877 28.8104 109.967 28.6163Z" fill="white" fill-opacity="0.2"/>
<path d="M1320.01 260.255C1319.11 259.837 1318.24 260.718 1318.65 261.614C1318.74 261.808 1318.89 261.957 1319.08 262.047C1319.98 262.45 1320.85 261.584 1320.44 260.688C1320.35 260.494 1320.2 260.345 1320.01 260.255Z" fill="white" fill-opacity="0.2"/>
<path d="M747.055 65.4455C747.473 64.5474 746.592 63.6793 745.697 64.0834C745.503 64.1732 745.353 64.3229 745.264 64.5174C744.861 65.4155 745.727 66.2836 746.622 65.8795C746.816 65.7897 746.966 65.64 747.055 65.4455Z" fill="white" fill-opacity="0.2"/>
<path d="M573.734 940.714C574.138 939.816 573.27 938.948 572.372 939.352C572.177 939.442 572.028 939.591 571.938 939.786C571.534 940.684 572.402 941.552 573.3 941.148C573.495 941.058 573.644 940.909 573.734 940.714Z" fill="white" fill-opacity="0.2"/>
<path d="M642.484 106.73C642.887 105.834 642.022 104.968 641.126 105.371C640.932 105.461 640.783 105.61 640.693 105.804C640.275 106.7 641.156 107.581 642.051 107.163C642.245 107.073 642.395 106.924 642.484 106.73Z" fill="white" fill-opacity="0.2"/>
<path d="M1131.59 1046.33C1132 1045.43 1131.12 1044.56 1130.23 1044.97C1130.03 1045.06 1129.88 1045.2 1129.8 1045.4C1129.39 1046.3 1130.26 1047.17 1131.15 1046.76C1131.35 1046.67 1131.5 1046.52 1131.59 1046.33Z" fill="white" fill-opacity="0.4"/>
<path d="M163.616 156.339C164.034 155.441 163.153 154.573 162.257 154.977C162.063 155.067 161.914 155.216 161.824 155.411C161.421 156.309 162.287 157.177 163.183 156.773C163.377 156.683 163.526 156.534 163.616 156.339Z" fill="white" fill-opacity="0.4"/>
<path d="M0.751572 192.658C1.1557 191.76 0.287565 190.892 -0.610503 191.296C-0.805085 191.386 -0.95473 191.536 -1.04454 191.73C-1.44867 192.628 -0.580575 193.497 0.317493 193.092C0.512074 193.003 0.661765 192.853 0.751572 192.658Z" fill="white" fill-opacity="0.2"/>
<path d="M168.398 317.071C168.802 316.173 167.934 315.305 167.036 315.709C166.841 315.799 166.692 315.949 166.602 316.143C166.198 317.041 167.066 317.91 167.964 317.505C168.159 317.416 168.308 317.266 168.398 317.071Z" fill="white" fill-opacity="0.2"/>
<path d="M512.293 108.966C512.697 108.068 511.829 107.2 510.931 107.604C510.736 107.694 510.586 107.843 510.496 108.038C510.092 108.936 510.96 109.804 511.859 109.4C512.053 109.31 512.203 109.161 512.293 108.966Z" fill="white" fill-opacity="0.2"/>
<path d="M540.448 1429.86C540.866 1428.96 539.985 1428.1 539.089 1428.5C538.895 1428.59 538.746 1428.74 538.656 1428.93C538.253 1429.83 539.119 1430.7 540.015 1430.3C540.209 1430.21 540.358 1430.06 540.448 1429.86Z" fill="white" fill-opacity="0.2"/>
<path d="M1269.25 1384.45C1269.65 1383.55 1268.78 1382.68 1267.89 1383.08C1267.69 1383.17 1267.54 1383.32 1267.45 1383.52C1267.05 1384.42 1267.92 1385.28 1268.81 1384.88C1269.01 1384.79 1269.16 1384.64 1269.25 1384.45Z" fill="white" fill-opacity="0.2"/>
<path d="M909.387 227.636C909.79 226.738 908.924 225.87 908.028 226.274C907.834 226.364 907.685 226.513 907.595 226.708C907.177 227.606 908.058 228.474 908.954 228.07C909.148 227.98 909.297 227.83 909.387 227.636Z" fill="white" fill-opacity="0.2"/>
<path d="M955.332 127.806C955.75 126.908 954.87 126.04 953.974 126.444C953.78 126.534 953.631 126.683 953.541 126.878C953.138 127.776 954.004 128.644 954.9 128.24C955.094 128.15 955.243 128 955.332 127.806Z" fill="white" fill-opacity="0.2"/>
<path d="M207.807 778.51C208.21 777.612 207.344 776.744 206.448 777.148C206.254 777.238 206.105 777.387 206.015 777.582C205.597 778.48 206.478 779.348 207.374 778.944C207.568 778.854 207.717 778.704 207.807 778.51Z" fill="white" fill-opacity="0.2"/>
<path d="M490.666 289.391C491.07 288.493 490.202 287.625 489.304 288.029C489.109 288.119 488.959 288.268 488.87 288.463C488.465 289.361 489.334 290.229 490.232 289.825C490.426 289.735 490.576 289.585 490.666 289.391Z" fill="white" fill-opacity="0.2"/>
<path d="M1017.6 1051.25C1018.01 1050.35 1017.13 1049.49 1016.24 1049.89C1016.04 1049.98 1015.89 1050.13 1015.8 1050.33C1015.4 1051.22 1016.27 1052.09 1017.16 1051.69C1017.36 1051.6 1017.51 1051.45 1017.6 1051.25Z" fill="white" fill-opacity="0.2"/>
<path d="M1262.42 872.245C1262.83 871.347 1261.95 870.479 1261.06 870.883C1260.86 870.973 1260.71 871.123 1260.63 871.317C1260.22 872.215 1261.09 873.083 1261.98 872.679C1262.18 872.59 1262.33 872.44 1262.42 872.245Z" fill="white" fill-opacity="0.4"/>
<path d="M1276.15 679.789C1276.56 678.891 1275.69 678.023 1274.79 678.427C1274.6 678.517 1274.45 678.667 1274.36 678.861C1273.95 679.759 1274.82 680.627 1275.72 680.223C1275.91 680.133 1276.06 679.984 1276.15 679.789Z" fill="white" fill-opacity="0.2"/>
<path d="M409.653 560.908C409.249 560.01 410.117 559.142 411.015 559.546C411.209 559.636 411.359 559.786 411.449 559.98C411.853 560.878 410.985 561.747 410.087 561.342C409.892 561.253 409.743 561.103 409.653 560.908Z" fill="white" fill-opacity="0.2"/>
<path d="M772.567 1250.54C772.163 1249.64 773.031 1248.77 773.929 1249.18C774.123 1249.27 774.273 1249.42 774.363 1249.61C774.767 1250.51 773.899 1251.38 773.001 1250.97C772.806 1250.88 772.657 1250.73 772.567 1250.54Z" fill="white" fill-opacity="0.2"/>
<path d="M342.529 1200.24C342.126 1199.35 342.992 1198.48 343.888 1198.88C344.082 1198.97 344.231 1199.12 344.321 1199.32C344.739 1200.21 343.858 1201.08 342.962 1200.68C342.768 1200.59 342.619 1200.44 342.529 1200.24Z" fill="white" fill-opacity="0.2"/>
<path d="M665.627 1257.24C665.223 1256.34 666.091 1255.47 666.989 1255.87C667.184 1255.96 667.334 1256.11 667.423 1256.31C667.828 1257.21 666.959 1258.07 666.061 1257.67C665.867 1257.58 665.717 1257.43 665.627 1257.24Z" fill="white" fill-opacity="0.2"/>
<path d="M812.385 1304.1C811.982 1303.2 812.848 1302.34 813.743 1302.74C813.937 1302.83 814.087 1302.98 814.176 1303.17C814.594 1304.07 813.713 1304.95 812.818 1304.53C812.624 1304.44 812.474 1304.29 812.385 1304.1Z" fill="white" fill-opacity="0.2"/>
<path d="M294.641 912.629C294.238 911.731 295.104 910.863 295.999 911.267C296.193 911.357 296.342 911.506 296.432 911.701C296.85 912.599 295.969 913.467 295.074 913.063C294.88 912.973 294.73 912.824 294.641 912.629Z" fill="white" fill-opacity="0.2"/>
<path d="M231.198 368.731C232.096 368.313 232.964 369.194 232.56 370.089C232.47 370.284 232.321 370.433 232.126 370.522C231.228 370.925 230.36 370.06 230.764 369.164C230.854 368.97 231.004 368.821 231.198 368.731Z" fill="white" fill-opacity="0.2"/>
<path d="M128.649 873.058C128.245 872.16 129.111 871.292 130.007 871.696C130.201 871.785 130.35 871.935 130.44 872.13C130.858 873.028 129.977 873.896 129.081 873.492C128.887 873.402 128.738 873.252 128.649 873.058Z" fill="white" fill-opacity="0.2"/>
<path d="M1044.8 106.177C1044.38 105.279 1045.26 104.411 1046.16 104.815C1046.35 104.905 1046.5 105.054 1046.59 105.249C1046.99 106.147 1046.13 107.015 1045.23 106.611C1045.04 106.521 1044.89 106.371 1044.8 106.177Z" fill="white" fill-opacity="0.4"/>
<path d="M1175.88 1007.68C1175.46 1006.78 1176.34 1005.9 1177.23 1006.32C1177.43 1006.41 1177.58 1006.56 1177.67 1006.75C1178.07 1007.65 1177.21 1008.52 1176.31 1008.11C1176.12 1008.02 1175.97 1007.87 1175.88 1007.68Z" fill="white" fill-opacity="0.2"/>
<path d="M1217.72 1156.7C1217.3 1155.8 1218.18 1154.93 1219.07 1155.34C1219.27 1155.43 1219.42 1155.57 1219.51 1155.77C1219.91 1156.67 1219.04 1157.54 1218.15 1157.13C1217.96 1157.04 1217.81 1156.89 1217.72 1156.7Z" fill="white" fill-opacity="0.4"/>
<path d="M1320.92 423.652C1320.52 422.753 1321.38 421.885 1322.28 422.289C1322.47 422.379 1322.62 422.529 1322.71 422.724C1323.13 423.622 1322.25 424.49 1321.35 424.086C1321.16 423.996 1321.01 423.846 1320.92 423.652Z" fill="white" fill-opacity="0.2"/>
<path d="M1294.11 328.816C1293.7 327.918 1294.58 327.049 1295.47 327.454C1295.67 327.543 1295.82 327.693 1295.91 327.888C1296.31 328.786 1295.44 329.654 1294.55 329.25C1294.35 329.16 1294.2 329.01 1294.11 328.816Z" fill="white" fill-opacity="0.4"/>
<path d="M1215.12 781.857C1214.71 780.959 1215.59 780.09 1216.48 780.495C1216.68 780.584 1216.83 780.734 1216.92 780.929C1217.32 781.827 1216.45 782.695 1215.56 782.291C1215.36 782.201 1215.21 782.051 1215.12 781.857Z" fill="white" fill-opacity="0.2"/>
<path d="M865.856 1.83803C865.453 0.939969 866.318 0.0718394 867.214 0.475966C867.408 0.565772 867.557 0.715439 867.647 0.910018C868.065 1.80808 867.184 2.67621 866.288 2.27208C866.094 2.18227 865.945 2.03261 865.856 1.83803Z" fill="white" fill-opacity="0.2"/>
<path d="M838.965 36.9152C838.561 36.0171 839.429 35.149 840.327 35.5531C840.522 35.6429 840.672 35.7926 840.761 35.9872C841.165 36.8852 840.297 37.7534 839.399 37.3492C839.205 37.2594 839.055 37.1097 838.965 36.9152Z" fill="white" fill-opacity="0.2"/>
<path d="M211.657 1140.06C211.253 1139.16 212.121 1138.29 213.019 1138.7C213.213 1138.79 213.363 1138.94 213.453 1139.13C213.857 1140.03 212.989 1140.9 212.091 1140.49C211.896 1140.4 211.746 1140.25 211.657 1140.06Z" fill="white" fill-opacity="0.2"/>
<path d="M72.9078 728.296C72.4898 727.401 73.3705 726.52 74.2662 726.938C74.4603 727.028 74.6095 727.177 74.6991 727.371C75.1022 728.267 74.2364 729.132 73.3407 728.729C73.1466 728.64 72.9973 728.491 72.9078 728.296Z" fill="white" fill-opacity="0.2"/>
<path d="M112.716 659.407C112.298 658.509 113.179 657.641 114.075 658.045C114.269 658.135 114.418 658.285 114.508 658.479C114.911 659.377 114.045 660.246 113.149 659.841C112.955 659.752 112.806 659.602 112.716 659.407Z" fill="white" fill-opacity="0.4"/>
<path d="M311.996 735.494C311.593 734.596 312.459 733.728 313.355 734.132C313.549 734.222 313.698 734.372 313.788 734.566C314.206 735.464 313.325 736.332 312.429 735.928C312.235 735.839 312.086 735.689 311.996 735.494Z" fill="white" fill-opacity="0.2"/>
<path d="M25.1212 376.783C24.7182 375.885 25.584 375.017 26.4796 375.421C26.6737 375.511 26.823 375.661 26.9125 375.855C27.3305 376.753 26.4498 377.622 25.5541 377.217C25.3601 377.128 25.2108 376.978 25.1212 376.783Z" fill="white" fill-opacity="0.2"/>
<path d="M1343.59 570.804C1343.19 569.906 1344.06 569.038 1344.95 569.442C1345.15 569.532 1345.3 569.681 1345.39 569.876C1345.8 570.774 1344.92 571.642 1344.03 571.238C1343.83 571.148 1343.68 570.998 1343.59 570.804Z" fill="white" fill-opacity="0.2"/>
<path d="M1395.48 453.645C1394.58 454.049 1393.72 453.181 1394.12 452.283C1394.21 452.088 1394.36 451.939 1394.55 451.849C1395.45 451.445 1396.32 452.313 1395.92 453.211C1395.83 453.406 1395.68 453.555 1395.48 453.645Z" fill="white" fill-opacity="0.4"/>
<path d="M1367.79 345.735C1366.89 346.153 1366.02 345.272 1366.43 344.376C1366.52 344.182 1366.67 344.033 1366.86 343.943C1367.76 343.54 1368.63 344.406 1368.22 345.302C1368.13 345.496 1367.98 345.645 1367.79 345.735Z" fill="white" fill-opacity="0.2"/>
<path d="M921.407 63.5382C921.003 62.6401 921.871 61.772 922.769 62.1762C922.963 62.266 923.113 62.4156 923.203 62.6102C923.607 63.5083 922.739 64.3764 921.841 63.9723C921.646 63.8825 921.496 63.7328 921.407 63.5382Z" fill="white" fill-opacity="0.2"/>
<path d="M238.172 684.469C237.769 683.571 238.635 682.703 239.53 683.107C239.724 683.197 239.874 683.346 239.963 683.541C240.381 684.439 239.501 685.307 238.605 684.903C238.411 684.813 238.262 684.663 238.172 684.469Z" fill="white" fill-opacity="0.2"/>
<path d="M574.614 38.6632C574.21 37.7652 575.078 36.897 575.976 37.3012C576.17 37.391 576.32 37.5406 576.41 37.7352C576.814 38.6333 575.946 39.5014 575.048 39.0973C574.853 39.0075 574.703 38.8578 574.614 38.6632Z" fill="white" fill-opacity="0.2"/>
<path d="M514.715 232.823C514.312 231.925 515.178 231.057 516.073 231.461C516.267 231.551 516.417 231.701 516.506 231.895C516.924 232.793 516.044 233.662 515.148 233.257C514.954 233.168 514.805 233.018 514.715 232.823Z" fill="white" fill-opacity="0.2"/>
<path d="M622.03 233.774C621.626 232.876 622.494 232.007 623.392 232.412C623.586 232.501 623.736 232.651 623.826 232.846C624.23 233.744 623.362 234.612 622.464 234.208C622.269 234.118 622.119 233.968 622.03 233.774Z" fill="white" fill-opacity="0.2"/>
<path d="M435.278 1213.03C434.874 1212.14 435.742 1211.27 436.64 1211.67C436.834 1211.76 436.984 1211.91 437.074 1212.11C437.478 1213 436.61 1213.87 435.712 1213.47C435.517 1213.38 435.368 1213.23 435.278 1213.03Z" fill="white" fill-opacity="0.2"/>
<path d="M1210.01 1230.39C1209.59 1229.5 1210.47 1228.63 1211.37 1229.03C1211.56 1229.12 1211.71 1229.27 1211.8 1229.47C1212.2 1230.36 1211.34 1231.23 1210.44 1230.83C1210.25 1230.74 1210.1 1230.59 1210.01 1230.39Z" fill="white" fill-opacity="0.4"/>
<path d="M629.221 1294.06C628.817 1293.16 629.685 1292.29 630.583 1292.7C630.778 1292.79 630.927 1292.94 631.017 1293.13C631.421 1294.03 630.553 1294.9 629.655 1294.49C629.461 1294.4 629.311 1294.25 629.221 1294.06Z" fill="white" fill-opacity="0.2"/>
<path d="M706.582 1391.14C706.178 1390.24 707.046 1389.38 707.944 1389.78C708.139 1389.87 708.289 1390.02 708.379 1390.21C708.783 1391.11 707.915 1391.98 707.016 1391.58C706.822 1391.49 706.672 1391.34 706.582 1391.14Z" fill="white" fill-opacity="0.4"/>
<path d="M844.903 1162.7C844.499 1161.8 845.367 1160.93 846.265 1161.34C846.459 1161.43 846.609 1161.57 846.699 1161.77C847.103 1162.67 846.235 1163.54 845.337 1163.13C845.142 1163.04 844.993 1162.89 844.903 1162.7Z" fill="white" fill-opacity="0.4"/>
<path d="M570.063 1310.8C569.659 1309.9 570.527 1309.03 571.425 1309.44C571.62 1309.53 571.769 1309.68 571.859 1309.87C572.263 1310.77 571.395 1311.64 570.497 1311.23C570.302 1311.14 570.153 1310.99 570.063 1310.8Z" fill="white" fill-opacity="0.4"/>
<path d="M616.707 1427.97C616.304 1427.07 617.17 1426.2 618.066 1426.61C618.26 1426.7 618.409 1426.85 618.498 1427.04C618.916 1427.94 618.036 1428.81 617.14 1428.4C616.946 1428.31 616.797 1428.16 616.707 1427.97Z" fill="white" fill-opacity="0.2"/>
<path d="M304.986 283.047C304.583 282.149 305.449 281.281 306.345 281.685C306.539 281.775 306.688 281.924 306.778 282.119C307.196 283.017 306.315 283.885 305.419 283.481C305.225 283.391 305.076 283.242 304.986 283.047Z" fill="white" fill-opacity="0.2"/>
<path d="M974.32 1183.53C973.917 1182.63 974.783 1181.76 975.679 1182.17C975.873 1182.26 976.022 1182.41 976.112 1182.6C976.53 1183.5 975.649 1184.37 974.753 1183.96C974.559 1183.87 974.41 1183.72 974.32 1183.53Z" fill="white" fill-opacity="0.2"/>
<path d="M935.134 1140.86C934.716 1139.96 935.597 1139.09 936.493 1139.5C936.687 1139.59 936.836 1139.74 936.926 1139.93C937.329 1140.83 936.463 1141.7 935.567 1141.29C935.373 1141.2 935.224 1141.05 935.134 1140.86Z" fill="white" fill-opacity="0.2"/>
<path d="M1134.35 537.475C1133.93 536.58 1134.81 535.699 1135.71 536.117C1135.9 536.206 1136.05 536.356 1136.14 536.55C1136.55 537.445 1135.68 538.311 1134.78 537.908C1134.59 537.819 1134.44 537.669 1134.35 537.475Z" fill="white" fill-opacity="0.2"/>
<path d="M1056.57 194.359C1056.17 193.46 1057.04 192.592 1057.93 192.996C1058.13 193.086 1058.28 193.236 1058.37 193.431C1058.77 194.329 1057.9 195.197 1057.01 194.793C1056.81 194.703 1056.66 194.553 1056.57 194.359Z" fill="white" fill-opacity="0.4"/>
<path d="M996.688 239.527C996.285 238.628 997.15 237.76 998.046 238.164C998.24 238.254 998.389 238.404 998.479 238.599C998.897 239.497 998.016 240.365 997.121 239.961C996.926 239.871 996.777 239.721 996.688 239.527Z" fill="white" fill-opacity="0.2"/>
<path d="M1078.42 1182.46C1078.02 1181.56 1078.88 1180.7 1079.78 1181.1C1079.98 1181.19 1080.13 1181.34 1080.22 1181.54C1080.62 1182.43 1079.75 1183.3 1078.85 1182.9C1078.66 1182.81 1078.51 1182.66 1078.42 1182.46Z" fill="white" fill-opacity="0.2"/>
<path d="M1063.15 312.702C1062.73 311.804 1063.61 310.936 1064.51 311.34C1064.7 311.43 1064.85 311.58 1064.94 311.774C1065.34 312.672 1064.48 313.54 1063.58 313.136C1063.39 313.047 1063.24 312.897 1063.15 312.702Z" fill="white" fill-opacity="0.2"/>
<path d="M1127.52 182.612C1127.12 181.717 1127.98 180.851 1128.88 181.254C1129.07 181.344 1129.22 181.493 1129.31 181.687C1129.73 182.583 1128.85 183.463 1127.95 183.045C1127.76 182.956 1127.61 182.807 1127.52 182.612Z" fill="white" fill-opacity="0.2"/>
<path d="M1180.48 816.219C1180.08 815.321 1180.94 814.453 1181.84 814.857C1182.03 814.947 1182.18 815.096 1182.27 815.291C1182.69 816.189 1181.81 817.057 1180.91 816.653C1180.72 816.563 1180.57 816.413 1180.48 816.219Z" fill="white" fill-opacity="0.2"/>
<path d="M1151.14 656.392C1150.73 655.494 1151.6 654.626 1152.5 655.03C1152.69 655.119 1152.84 655.269 1152.93 655.464C1153.34 656.362 1152.47 657.23 1151.57 656.826C1151.37 656.736 1151.22 656.586 1151.14 656.392Z" fill="white" fill-opacity="0.2"/>
<path d="M1279.97 1039.63C1279.55 1038.73 1280.43 1037.87 1281.33 1038.27C1281.52 1038.36 1281.67 1038.51 1281.76 1038.7C1282.17 1039.6 1281.3 1040.47 1280.41 1040.07C1280.21 1039.98 1280.06 1039.83 1279.97 1039.63Z" fill="white" fill-opacity="0.2"/>
<path d="M1125.24 909.071C1124.84 908.173 1125.71 907.305 1126.6 907.709C1126.8 907.799 1126.95 907.949 1127.04 908.143C1127.45 909.041 1126.57 909.91 1125.68 909.505C1125.48 909.416 1125.33 909.266 1125.24 909.071Z" fill="white" fill-opacity="0.2"/>
<path d="M1314.9 934.78C1314.5 933.882 1315.36 933.014 1316.26 933.418C1316.45 933.508 1316.6 933.658 1316.69 933.852C1317.11 934.75 1316.23 935.619 1315.33 935.214C1315.14 935.125 1314.99 934.975 1314.9 934.78Z" fill="white" fill-opacity="0.2"/>
<path d="M233.141 935.037C232.738 934.139 233.603 933.271 234.499 933.675C234.693 933.765 234.842 933.915 234.932 934.109C235.35 935.007 234.469 935.875 233.574 935.471C233.38 935.381 233.23 935.232 233.141 935.037Z" fill="white" fill-opacity="0.2"/>
<path d="M1135.67 1197.11C1135.27 1196.22 1136.14 1195.35 1137.04 1195.75C1137.23 1195.84 1137.38 1195.99 1137.47 1196.19C1137.87 1197.08 1137.01 1197.95 1136.11 1197.55C1135.91 1197.46 1135.76 1197.31 1135.67 1197.11Z" fill="white" fill-opacity="0.2"/>
<path d="M863.58 1294.06C863.176 1293.16 864.044 1292.29 864.943 1292.7C865.137 1292.79 865.287 1292.94 865.377 1293.13C865.781 1294.03 864.913 1294.9 864.015 1294.49C863.82 1294.4 863.67 1294.25 863.58 1294.06Z" fill="white" fill-opacity="0.2"/>
<path d="M1118.25 1358.26C1117.84 1357.36 1118.72 1356.49 1119.61 1356.9C1119.81 1356.99 1119.96 1357.14 1120.04 1357.33C1120.45 1358.23 1119.58 1359.1 1118.69 1358.69C1118.49 1358.6 1118.34 1358.45 1118.25 1358.26Z" fill="white" fill-opacity="0.4"/>
<path d="M971.344 346.654C971.762 345.756 970.881 344.888 969.986 345.292C969.792 345.382 969.642 345.532 969.553 345.726C969.15 346.624 970.016 347.493 970.911 347.088C971.105 346.999 971.255 346.849 971.344 346.654Z" fill="white" fill-opacity="0.4"/>
<path d="M1109.01 684.774C1109.41 683.876 1108.54 683.007 1107.65 683.412C1107.45 683.501 1107.3 683.651 1107.21 683.846C1106.81 684.744 1107.68 685.612 1108.57 685.208C1108.77 685.118 1108.92 684.968 1109.01 684.774Z" fill="white" fill-opacity="0.2"/>
<path d="M1057.47 457.024C1057.06 456.126 1057.94 455.257 1058.83 455.662C1059.03 455.751 1059.18 455.901 1059.27 456.096C1059.67 456.994 1058.8 457.862 1057.91 457.458C1057.71 457.368 1057.56 457.218 1057.47 457.024Z" fill="white" fill-opacity="0.4"/>
<path d="M1049.77 530.72C1049.35 529.822 1050.23 528.954 1051.13 529.358C1051.32 529.448 1051.47 529.597 1051.56 529.792C1051.96 530.69 1051.1 531.558 1050.2 531.154C1050.01 531.064 1049.86 530.914 1049.77 530.72Z" fill="white" fill-opacity="0.4"/>
<path d="M1119.73 339.958C1119.31 339.06 1120.19 338.192 1121.09 338.596C1121.28 338.686 1121.43 338.836 1121.52 339.03C1121.92 339.928 1121.06 340.796 1120.16 340.392C1119.97 340.302 1119.82 340.153 1119.73 339.958Z" fill="white" fill-opacity="0.2"/>
<path d="M975.432 497.442C975.028 496.543 975.896 495.675 976.794 496.079C976.989 496.169 977.138 496.319 977.228 496.514C977.632 497.412 976.764 498.28 975.866 497.876C975.672 497.786 975.522 497.636 975.432 497.442Z" fill="white" fill-opacity="0.2"/>
<path d="M958.011 658.587C957.593 657.689 958.474 656.821 959.37 657.225C959.564 657.315 959.713 657.464 959.803 657.659C960.206 658.557 959.34 659.425 958.444 659.021C958.25 658.931 958.101 658.782 958.011 658.587Z" fill="white" fill-opacity="0.4"/>
<path d="M1054.92 976.065C1054.5 975.167 1055.38 974.298 1056.28 974.703C1056.47 974.792 1056.62 974.942 1056.71 975.137C1057.11 976.035 1056.25 976.903 1055.35 976.499C1055.16 976.409 1055.01 976.259 1054.92 976.065Z" fill="white" fill-opacity="0.2"/>
<path d="M1346.88 786.068C1346.48 785.17 1347.34 784.302 1348.24 784.706C1348.43 784.796 1348.58 784.946 1348.67 785.14C1349.09 786.039 1348.21 786.907 1347.31 786.503C1347.12 786.413 1346.97 786.263 1346.88 786.068Z" fill="white" fill-opacity="0.2"/>
<path d="M1439.46 255.347C1438.57 255.765 1437.7 254.884 1438.1 253.989C1438.19 253.795 1438.34 253.645 1438.54 253.556C1439.43 253.153 1440.3 254.019 1439.9 254.914C1439.81 255.108 1439.66 255.258 1439.46 255.347Z" fill="white" fill-opacity="0.2"/>
<path d="M882.802 470.52C883.206 469.622 882.338 468.753 881.44 469.158C881.246 469.247 881.096 469.397 881.006 469.592C880.602 470.49 881.47 471.358 882.368 470.954C882.563 470.864 882.713 470.714 882.802 470.52Z" fill="white" fill-opacity="0.4"/>
<path d="M860.192 911.976C860.61 911.078 859.729 910.21 858.833 910.614C858.639 910.703 858.49 910.853 858.4 911.048C857.997 911.946 858.863 912.814 859.759 912.41C859.953 912.32 860.102 912.17 860.192 911.976Z" fill="white" fill-opacity="0.2"/>
<path d="M810.889 501.42C811.292 500.522 810.426 499.654 809.53 500.058C809.336 500.148 809.187 500.297 809.097 500.492C808.679 501.39 809.56 502.258 810.456 501.854C810.65 501.764 810.799 501.615 810.889 501.42Z" fill="white" fill-opacity="0.2"/>
<path d="M896.453 601.081C896.857 600.183 895.989 599.315 895.091 599.719C894.896 599.809 894.746 599.959 894.657 600.153C894.253 601.051 895.121 601.919 896.019 601.515C896.213 601.425 896.363 601.276 896.453 601.081Z" fill="white" fill-opacity="0.2"/>
<path d="M612.811 798.596C613.229 797.698 612.348 796.83 611.453 797.234C611.258 797.324 611.109 797.473 611.02 797.668C610.617 798.566 611.482 799.434 612.378 799.03C612.572 798.94 612.721 798.79 612.811 798.596Z" fill="white" fill-opacity="0.2"/>
<path d="M805.436 1039.63C805.854 1038.73 804.973 1037.87 804.078 1038.27C803.883 1038.36 803.734 1038.51 803.645 1038.7C803.242 1039.6 804.107 1040.47 805.003 1040.07C805.197 1039.98 805.346 1039.83 805.436 1039.63Z" fill="white" fill-opacity="0.2"/>
<path d="M985.191 1096.54C985.594 1095.65 984.729 1094.78 983.833 1095.18C983.639 1095.27 983.49 1095.42 983.4 1095.62C982.982 1096.51 983.863 1097.38 984.758 1096.98C984.952 1096.89 985.102 1096.74 985.191 1096.54Z" fill="white" fill-opacity="0.2"/>
<path d="M559.7 477.215C560.118 476.317 559.237 475.449 558.341 475.853C558.147 475.943 557.998 476.092 557.908 476.287C557.505 477.185 558.371 478.053 559.267 477.649C559.461 477.559 559.61 477.41 559.7 477.215Z" fill="white" fill-opacity="0.4"/>
<path d="M553.998 925.89C554.401 924.992 553.535 924.124 552.64 924.528C552.445 924.618 552.296 924.767 552.207 924.962C551.789 925.86 552.669 926.728 553.565 926.324C553.759 926.234 553.908 926.084 553.998 925.89Z" fill="white" fill-opacity="0.2"/>
<path d="M761.098 532.235C761.501 531.34 760.635 530.474 759.739 530.877C759.545 530.967 759.396 531.116 759.306 531.31C758.888 532.206 759.769 533.086 760.665 532.668C760.859 532.579 761.008 532.43 761.098 532.235Z" fill="white" fill-opacity="0.2"/>
<path d="M682.685 1141.7C683.088 1140.8 682.223 1139.93 681.327 1140.33C681.133 1140.42 680.984 1140.57 680.894 1140.77C680.476 1141.67 681.357 1142.53 682.253 1142.13C682.447 1142.04 682.596 1141.89 682.685 1141.7Z" fill="white" fill-opacity="0.2"/>
<path d="M901.708 708.851C900.81 708.433 899.942 709.314 900.346 710.21C900.436 710.404 900.586 710.553 900.78 710.642C901.678 711.046 902.546 710.18 902.142 709.284C902.052 709.09 901.903 708.941 901.708 708.851Z" fill="white" fill-opacity="0.2"/>
<path d="M491.086 676.232C491.489 675.334 490.623 674.465 489.727 674.87C489.533 674.959 489.384 675.109 489.295 675.304C488.877 676.202 489.757 677.07 490.653 676.666C490.847 676.576 490.996 676.426 491.086 676.232Z" fill="white" fill-opacity="0.2"/>
<path d="M537.032 576.402C537.45 575.503 536.569 574.635 535.673 575.039C535.479 575.129 535.33 575.279 535.24 575.474C534.837 576.372 535.703 577.24 536.599 576.836C536.793 576.746 536.942 576.596 537.032 576.402Z" fill="white" fill-opacity="0.2"/>
<path d="M857.851 1128.38C858.255 1127.49 857.387 1126.62 856.489 1127.02C856.295 1127.11 856.145 1127.26 856.055 1127.46C855.651 1128.35 856.519 1129.22 857.417 1128.82C857.612 1128.73 857.761 1128.58 857.851 1128.38Z" fill="white" fill-opacity="0.2"/>
<path d="M626.498 554.772C626.08 553.874 626.96 553.005 627.856 553.41C628.05 553.499 628.199 553.649 628.289 553.844C628.692 554.742 627.826 555.61 626.931 555.206C626.736 555.116 626.587 554.966 626.498 554.772Z" fill="white" fill-opacity="0.4"/>
<path d="M902.621 872.246C902.218 871.348 903.084 870.48 903.98 870.884C904.174 870.974 904.323 871.124 904.413 871.318C904.831 872.216 903.95 873.084 903.054 872.68C902.86 872.59 902.711 872.441 902.621 872.246Z" fill="white" fill-opacity="0.2"/>
<path d="M875.814 777.41C875.396 776.512 876.277 775.644 877.172 776.048C877.367 776.138 877.516 776.288 877.605 776.482C878.008 777.38 877.143 778.248 876.247 777.844C876.053 777.755 875.904 777.605 875.814 777.41Z" fill="white" fill-opacity="0.4"/>
<path d="M925.293 1019.4C924.89 1018.5 925.756 1017.63 926.651 1018.04C926.846 1018.13 926.995 1018.28 927.084 1018.47C927.502 1019.37 926.622 1020.24 925.726 1019.83C925.532 1019.74 925.383 1019.59 925.293 1019.4Z" fill="white" fill-opacity="0.2"/>
<path d="M977.179 902.24C976.281 902.644 975.413 901.776 975.817 900.878C975.907 900.683 976.056 900.534 976.251 900.444C977.149 900.04 978.017 900.908 977.613 901.806C977.523 902 977.373 902.15 977.179 902.24Z" fill="white" fill-opacity="0.4"/>
<path d="M949.489 794.33C948.591 794.747 947.723 793.867 948.127 792.971C948.217 792.777 948.367 792.628 948.561 792.538C949.459 792.135 950.328 793.001 949.923 793.897C949.834 794.091 949.684 794.24 949.489 794.33Z" fill="white" fill-opacity="0.2"/>
<path d="M503.106 512.133C502.702 511.235 503.57 510.367 504.468 510.771C504.662 510.861 504.812 511.01 504.902 511.205C505.306 512.103 504.438 512.971 503.54 512.567C503.345 512.477 503.196 512.328 503.106 512.133Z" fill="white" fill-opacity="0.2"/>
<path d="M716.048 986.07C715.63 985.174 716.511 984.294 717.407 984.711C717.601 984.801 717.75 984.95 717.84 985.144C718.243 986.04 717.377 986.906 716.481 986.503C716.287 986.413 716.138 986.264 716.048 986.07Z" fill="white" fill-opacity="0.2"/>
<path d="M638.272 642.953C637.868 642.055 638.736 641.187 639.634 641.591C639.829 641.681 639.978 641.831 640.068 642.025C640.472 642.923 639.604 643.791 638.706 643.387C638.511 643.298 638.362 643.148 638.272 642.953Z" fill="white" fill-opacity="0.4"/>
<path d="M578.387 688.122C577.984 687.224 578.85 686.356 579.745 686.76C579.939 686.85 580.089 687 580.178 687.194C580.596 688.092 579.715 688.96 578.82 688.556C578.626 688.466 578.476 688.317 578.387 688.122Z" fill="white" fill-opacity="0.2"/>
<path d="M644.849 761.297C644.431 760.399 645.312 759.531 646.208 759.935C646.402 760.025 646.551 760.174 646.641 760.369C647.044 761.267 646.178 762.135 645.282 761.731C645.088 761.641 644.939 761.492 644.849 761.297Z" fill="white" fill-opacity="0.2"/>
<path d="M518.867 748.377C518.464 747.481 519.33 746.616 520.226 747.019C520.42 747.108 520.569 747.257 520.659 747.452C521.077 748.347 520.196 749.228 519.3 748.81C519.106 748.72 518.957 748.571 518.867 748.377Z" fill="white" fill-opacity="0.2"/>
<path d="M732.834 1104.99C732.43 1104.09 733.298 1103.22 734.196 1103.62C734.391 1103.71 734.541 1103.86 734.63 1104.06C735.035 1104.96 734.166 1105.82 733.268 1105.42C733.074 1105.33 732.924 1105.18 732.834 1104.99Z" fill="white" fill-opacity="0.2"/>
<path d="M1021.16 703.942C1020.27 704.36 1019.4 703.479 1019.8 702.583C1019.89 702.389 1020.04 702.24 1020.24 702.15C1021.13 701.747 1022 702.613 1021.6 703.509C1021.51 703.703 1021.36 703.852 1021.16 703.942Z" fill="white" fill-opacity="0.2"/>
<path d="M258.347 818.682C257.929 817.784 258.81 816.916 259.706 817.32C259.9 817.41 260.049 817.559 260.139 817.754C260.542 818.652 259.676 819.52 258.78 819.116C258.586 819.026 258.437 818.876 258.347 818.682Z" fill="white" fill-opacity="0.2"/>
<path d="M491.57 1307.45C491.152 1306.55 492.033 1305.68 492.928 1306.09C493.122 1306.18 493.272 1306.33 493.361 1306.52C493.764 1307.42 492.898 1308.29 492.003 1307.88C491.809 1307.79 491.659 1307.64 491.57 1307.45Z" fill="white" fill-opacity="0.2"/>
<path d="M381.216 1290.71C380.798 1289.81 381.679 1288.94 382.575 1289.35C382.769 1289.44 382.918 1289.59 383.008 1289.78C383.411 1290.68 382.545 1291.55 381.649 1291.15C381.455 1291.06 381.306 1290.91 381.216 1290.71Z" fill="white" fill-opacity="0.4"/>
<path d="M487.019 1183.58C486.601 1182.69 487.482 1181.82 488.378 1182.22C488.572 1182.31 488.721 1182.46 488.81 1182.66C489.213 1183.55 488.348 1184.42 487.452 1184.02C487.258 1183.93 487.109 1183.78 487.019 1183.58Z" fill="white" fill-opacity="0.2"/>
<path d="M354.095 916.272C353.677 915.374 354.558 914.505 355.454 914.91C355.648 914.999 355.797 915.149 355.887 915.344C356.29 916.242 355.424 917.11 354.528 916.706C354.334 916.616 354.185 916.466 354.095 916.272Z" fill="white" fill-opacity="0.2"/>
<path d="M485.738 909.3C485.32 908.402 486.201 907.534 487.096 907.938C487.29 908.028 487.44 908.177 487.529 908.372C487.932 909.27 487.066 910.138 486.171 909.734C485.977 909.644 485.827 909.495 485.738 909.3Z" fill="white" fill-opacity="0.2"/>
<path d="M409.121 1111.25C408.717 1110.36 409.585 1109.49 410.484 1109.89C410.678 1109.98 410.828 1110.13 410.918 1110.33C411.322 1111.22 410.454 1112.09 409.556 1111.69C409.361 1111.6 409.211 1111.45 409.121 1111.25Z" fill="white" fill-opacity="0.2"/>
<path d="M822.146 142.443C822.549 141.545 821.684 140.677 820.788 141.081C820.594 141.171 820.445 141.321 820.355 141.515C819.937 142.414 820.818 143.282 821.713 142.878C821.908 142.788 822.057 142.638 822.146 142.443Z" fill="white" fill-opacity="0.2"/>
<path d="M788.016 440.391C788.419 439.493 787.553 438.625 786.657 439.029C786.463 439.119 786.314 439.268 786.224 439.463C785.806 440.361 786.687 441.229 787.583 440.825C787.777 440.735 787.926 440.585 788.016 440.391Z" fill="white" fill-opacity="0.4"/>
<path d="M679.279 282.969C678.876 282.071 679.742 281.203 680.638 281.607C680.832 281.697 680.981 281.846 681.071 282.041C681.489 282.939 680.608 283.807 679.712 283.403C679.518 283.313 679.369 283.163 679.279 282.969Z" fill="white" fill-opacity="0.2"/>
<path d="M772.028 295.758C771.624 294.86 772.492 293.992 773.39 294.396C773.584 294.486 773.734 294.635 773.824 294.83C774.228 295.728 773.36 296.596 772.462 296.192C772.267 296.102 772.118 295.953 772.028 295.758Z" fill="white" fill-opacity="0.2"/>
<path d="M828.318 390.175C827.9 389.277 828.781 388.409 829.676 388.813C829.87 388.903 830.02 389.052 830.109 389.247C830.512 390.145 829.647 391.013 828.751 390.609C828.557 390.519 828.408 390.37 828.318 390.175Z" fill="white" fill-opacity="0.2"/>
<path d="M717.964 373.436C717.546 372.538 718.427 371.669 719.323 372.074C719.517 372.163 719.666 372.313 719.756 372.508C720.159 373.406 719.293 374.274 718.397 373.87C718.203 373.78 718.054 373.63 717.964 373.436Z" fill="white" fill-opacity="0.4"/>
<path d="M823.767 266.31C823.349 265.412 824.23 264.544 825.126 264.948C825.32 265.037 825.469 265.187 825.558 265.382C825.962 266.28 825.096 267.148 824.2 266.744C824.006 266.654 823.857 266.504 823.767 266.31Z" fill="white" fill-opacity="0.2"/>
<path d="M745.871 193.979C745.467 193.081 746.335 192.212 747.234 192.617C747.428 192.706 747.578 192.856 747.668 193.051C748.072 193.949 747.204 194.817 746.306 194.413C746.111 194.323 745.961 194.173 745.871 193.979Z" fill="white" fill-opacity="0.2"/>
<path d="M225.651 1051.46C225.247 1050.56 226.115 1049.69 227.013 1050.1C227.207 1050.19 227.357 1050.34 227.447 1050.53C227.851 1051.43 226.983 1052.3 226.085 1051.9C225.89 1051.81 225.741 1051.66 225.651 1051.46Z" fill="white" fill-opacity="0.4"/>
<path d="M93.3812 259.613C92.9771 258.715 93.8452 257.847 94.7433 258.251C94.9379 258.341 95.0876 258.491 95.1774 258.685C95.5815 259.583 94.7134 260.452 93.8153 260.047C93.6207 259.958 93.471 259.808 93.3812 259.613Z" fill="white" fill-opacity="0.2"/>
<path d="M369.592 92.1681C369.189 91.2724 370.055 90.4066 370.95 90.8097C371.144 90.8992 371.294 91.0485 371.383 91.2426C371.801 92.1382 370.92 93.019 370.025 92.601C369.831 92.5114 369.681 92.3621 369.592 92.1681Z" fill="white" fill-opacity="0.2"/>
<path d="M247.454 30.0548C247.049 29.1567 247.918 28.2886 248.816 28.6928C249.01 28.7826 249.16 28.9322 249.25 29.1268C249.654 30.0249 248.786 30.893 247.888 30.4889C247.693 30.3991 247.543 30.2494 247.454 30.0548Z" fill="white" fill-opacity="0.2"/>
<path d="M246.972 162.529C246.554 161.631 247.435 160.763 248.331 161.167C248.525 161.257 248.674 161.407 248.764 161.601C249.167 162.499 248.301 163.368 247.405 162.963C247.211 162.874 247.062 162.724 246.972 162.529Z" fill="white" fill-opacity="0.2"/>
<path d="M435.824 185.964C435.406 185.066 436.287 184.198 437.182 184.602C437.376 184.692 437.526 184.841 437.615 185.036C438.018 185.934 437.152 186.802 436.257 186.398C436.063 186.308 435.913 186.159 435.824 185.964Z" fill="white" fill-opacity="0.2"/>
<path d="M143.438 483.91C143.034 483.012 143.902 482.144 144.8 482.548C144.995 482.638 145.144 482.788 145.234 482.982C145.638 483.88 144.77 484.748 143.872 484.344C143.677 484.255 143.528 484.105 143.438 483.91Z" fill="white" fill-opacity="0.2"/>
<path d="M83.961 441.857C83.558 440.959 84.4238 440.09 85.3195 440.495C85.5136 440.584 85.6628 440.734 85.7524 440.929C86.1704 441.827 85.2896 442.695 84.3939 442.291C84.1999 442.201 84.0506 442.051 83.961 441.857Z" fill="white" fill-opacity="0.2"/>
</g>
<defs>
<linearGradient id="paint0_linear_6334_85369" x1="720" y1="537.102" x2="720" y2="1430" gradientUnits="userSpaceOnUse">
<stop stop-color="#211B2B"/>
<stop offset="1" stop-color="#0C23A7"/>
</linearGradient>
<radialGradient id="paint1_radial_6334_85369" cx="0" cy="0" r="1" gradientUnits="userSpaceOnUse" gradientTransform="translate(720 754.539) rotate(90) scale(674.333 721.086)">
<stop stop-color="white"/>
<stop offset="1" stop-color="white" stop-opacity="0"/>
</radialGradient>
<clipPath id="clip0_6334_85369">
<rect width="1440" height="1430" fill="white" transform="translate(0 0.398438)"/>
</clipPath>
</defs>
</svg>
