<svg width="210" height="44" viewBox="0 0 210 44" fill="none" xmlns="http://www.w3.org/2000/svg">
<rect y="6" width="32" height="32" rx="16" fill="#0052CC"/>
<g clip-path="url(#clip0_6184_58371)">
<path fill-rule="evenodd" clip-rule="evenodd" d="M18.1614 18.2947C18.2843 18.0073 18.3525 17.6901 18.3525 17.3568C18.3525 16.0552 17.313 15 16.0309 15C14.7487 15 13.7093 16.0552 13.7093 17.3568C13.7093 17.6901 13.7774 18.0073 13.9004 18.2947C13.4784 17.705 12.7937 17.3216 12.0208 17.3216C10.7386 17.3216 9.69922 18.3768 9.69922 19.6784C9.69922 20.8409 10.5283 21.8068 11.619 22C10.5283 22.1932 9.69922 23.1591 9.69922 24.3216C9.69922 25.6232 10.7386 26.6784 12.0208 26.6784C12.7937 26.6784 13.4784 26.295 13.9004 25.7053C13.7774 25.9927 13.7093 26.3099 13.7093 26.6432C13.7093 27.9448 14.7487 29 16.0309 29C17.313 29 18.3525 27.9448 18.3525 26.6432C18.3525 26.3099 18.2843 25.9927 18.1614 25.7053C18.5833 26.295 19.268 26.6784 20.0409 26.6784C21.3231 26.6784 22.3626 25.6232 22.3626 24.3216C22.3626 23.1591 21.5334 22.1932 20.4427 22C21.5334 21.8068 22.3626 20.8409 22.3626 19.6784C22.3626 18.3768 21.3231 17.3216 20.0409 17.3216C19.268 17.3216 18.5833 17.705 18.1614 18.2947ZM17.9104 25.2596C17.7875 24.9721 17.7193 24.655 17.7193 24.3216C17.7193 23.1591 18.5484 22.1932 19.6391 22C18.5484 21.8068 17.7193 20.8409 17.7193 19.6784C17.7193 19.3451 17.7875 19.0279 17.9104 18.7405C17.4885 19.3302 16.8038 19.7136 16.0309 19.7136C15.258 19.7136 14.5733 19.3302 14.1513 18.7405C14.2743 19.0279 14.3424 19.3451 14.3424 19.6784C14.3424 20.8409 13.5133 21.8068 12.4227 22C13.5133 22.1932 14.3424 23.1591 14.3424 24.3216C14.3424 24.655 14.2743 24.9721 14.1513 25.2596C14.5733 24.6699 15.258 24.2864 16.0309 24.2864C16.8038 24.2864 17.4885 24.6699 17.9104 25.2596Z" fill="#F8FAFB"/>
</g>
<path d="M43.2656 33.5V31.1875L55.3438 13.4844H43.1562V10.5H59.6094V12.8125L47.5156 30.5156H59.7031V33.5H43.2656ZM67.6875 33.7344C66.5938 33.7344 65.6146 33.5521 64.75 33.1875C63.8958 32.8125 63.2188 32.2604 62.7188 31.5312C62.2188 30.7917 61.9688 29.875 61.9688 28.7812C61.9688 27.8438 62.1458 27.0729 62.5 26.4688C62.8646 25.8646 63.3542 25.3854 63.9688 25.0312C64.5833 24.6771 65.2812 24.4115 66.0625 24.2344C66.8438 24.0469 67.651 23.9062 68.4844 23.8125C69.526 23.6771 70.3438 23.5729 70.9375 23.5C71.5417 23.4167 71.9688 23.2917 72.2188 23.125C72.4792 22.9479 72.6094 22.6615 72.6094 22.2656V22.1875C72.6094 21.3854 72.3177 20.7396 71.7344 20.25C71.1615 19.75 70.3542 19.5 69.3125 19.5C68.2917 19.5 67.4583 19.7448 66.8125 20.2344C66.1771 20.724 65.8229 21.3438 65.75 22.0938H62.375C62.4375 21.0729 62.7552 20.1615 63.3281 19.3594C63.9115 18.5573 64.7135 17.9219 65.7344 17.4531C66.7552 16.9844 67.9583 16.75 69.3438 16.75C70.6979 16.75 71.8698 16.9792 72.8594 17.4375C73.849 17.8958 74.6094 18.5312 75.1406 19.3438C75.6823 20.1562 75.9531 21.1042 75.9531 22.1875V33.5H72.6875V31.1562H72.625C72.3854 31.6042 72.0625 32.026 71.6562 32.4219C71.25 32.8177 70.724 33.1354 70.0781 33.375C69.4323 33.6146 68.6354 33.7344 67.6875 33.7344ZM68.4062 31.0625C69.3542 31.0625 70.1406 30.8958 70.7656 30.5625C71.401 30.2188 71.8698 29.7656 72.1719 29.2031C72.474 28.6302 72.625 28.0052 72.625 27.3281V25.4219C72.4062 25.5885 71.9167 25.7448 71.1562 25.8906C70.3958 26.026 69.5781 26.1562 68.7031 26.2812C68.1094 26.3646 67.5521 26.5052 67.0312 26.7031C66.5208 26.8906 66.1042 27.1562 65.7812 27.5C65.4688 27.8333 65.3125 28.2812 65.3125 28.8438C65.3229 29.5417 65.6042 30.0885 66.1562 30.4844C66.7083 30.8698 67.4583 31.0625 68.4062 31.0625ZM82.5156 23.9688V33.5H79.1562V17H82.4219V19.7812H82.4844C82.849 18.9167 83.4427 18.1979 84.2656 17.625C85.0885 17.0417 86.1458 16.75 87.4375 16.75C88.5833 16.75 89.6198 16.9948 90.5469 17.4844C91.4844 17.974 92.2292 18.7031 92.7812 19.6719C93.3333 20.6302 93.6094 21.8229 93.6094 23.25V33.5H90.2656V23.6562C90.2656 22.3438 89.9219 21.349 89.2344 20.6719C88.5573 19.9948 87.6406 19.6562 86.4844 19.6562C85.7448 19.6562 85.0729 19.8073 84.4688 20.1094C83.875 20.4115 83.401 20.8802 83.0469 21.5156C82.6927 22.151 82.5156 22.9688 82.5156 23.9688ZM105.266 33.75C104.172 33.75 103.193 33.5208 102.328 33.0625C101.464 32.5938 100.76 31.8958 100.219 30.9688H100.156V33.5H96.8125V10.5H100.172V19.5156H100.234C100.724 18.599 101.411 17.9115 102.297 17.4531C103.182 16.9844 104.177 16.75 105.281 16.75C106.635 16.75 107.833 17.0938 108.875 17.7812C109.927 18.4583 110.745 19.4323 111.328 20.7031C111.922 21.974 112.219 23.4896 112.219 25.25C112.219 26.9792 111.927 28.4844 111.344 29.7656C110.76 31.0365 109.948 32.0208 108.906 32.7188C107.865 33.4062 106.651 33.75 105.266 33.75ZM104.469 30.9219C105.344 30.9219 106.109 30.7083 106.766 30.2812C107.422 29.8438 107.932 29.2031 108.297 28.3594C108.672 27.5156 108.859 26.4792 108.859 25.25C108.859 24.0104 108.672 22.974 108.297 22.1406C107.932 21.2969 107.422 20.6615 106.766 20.2344C106.109 19.8073 105.344 19.5938 104.469 19.5938C103.552 19.5938 102.755 19.8281 102.078 20.2969C101.411 20.7552 100.896 21.4062 100.531 22.25C100.167 23.0938 99.9844 24.0938 99.9844 25.25C99.9844 26.3958 100.167 27.3958 100.531 28.25C100.896 29.1042 101.411 29.7656 102.078 30.2344C102.755 30.6927 103.552 30.9219 104.469 30.9219ZM114.719 33.5V17H118.062V33.5H114.719ZM116.391 14.1094C115.818 14.1094 115.328 13.9115 114.922 13.5156C114.516 13.1198 114.318 12.6458 114.328 12.0938C114.318 11.5208 114.516 11.0417 114.922 10.6562C115.328 10.2604 115.818 10.0625 116.391 10.0625C116.964 10.0625 117.448 10.2604 117.844 10.6562C118.24 11.0417 118.443 11.5208 118.453 12.0938C118.443 12.6458 118.24 13.1198 117.844 13.5156C117.448 13.9115 116.964 14.1094 116.391 14.1094ZM128.531 33.75C126.958 33.75 125.573 33.3958 124.375 32.6875C123.177 31.9688 122.24 30.974 121.562 29.7031C120.896 28.4219 120.562 26.9479 120.562 25.2812C120.562 23.5938 120.896 22.1094 121.562 20.8281C122.24 19.5469 123.177 18.5469 124.375 17.8281C125.573 17.1094 126.958 16.75 128.531 16.75C130.115 16.75 131.5 17.1094 132.688 17.8281C133.885 18.5469 134.818 19.5469 135.484 20.8281C136.161 22.1094 136.5 23.5938 136.5 25.2812C136.5 26.9479 136.167 28.4219 135.5 29.7031C134.833 30.974 133.901 31.9688 132.703 32.6875C131.505 33.3958 130.115 33.75 128.531 33.75ZM128.531 30.9062C129.427 30.9062 130.219 30.6719 130.906 30.2031C131.594 29.7344 132.135 29.0781 132.531 28.2344C132.927 27.3802 133.125 26.3958 133.125 25.2812C133.125 24.1354 132.927 23.1406 132.531 22.2969C132.135 21.4427 131.594 20.776 130.906 20.2969C130.229 19.8073 129.438 19.5625 128.531 19.5625C127.625 19.5625 126.828 19.8021 126.141 20.2812C125.453 20.7604 124.911 21.4271 124.516 22.2812C124.13 23.1354 123.938 24.1354 123.938 25.2812C123.948 26.3958 124.146 27.3802 124.531 28.2344C124.927 29.0781 125.469 29.7344 126.156 30.2031C126.844 30.6719 127.635 30.9062 128.531 30.9062Z" fill="#1C2433"/>
<defs>
<clipPath id="clip0_6184_58371">
<rect width="14" height="14" fill="white" transform="translate(9 15)"/>
</clipPath>
</defs>
</svg>
