<svg width="32" height="32" viewBox="0 0 32 32" fill="none" xmlns="http://www.w3.org/2000/svg">
<rect width="32" height="32" rx="16" fill="#0052CC"/>
<g clip-path="url(#clip0_6184_58372)">
<path fill-rule="evenodd" clip-rule="evenodd" d="M18.1614 12.2947C18.2843 12.0073 18.3525 11.6901 18.3525 11.3568C18.3525 10.0552 17.313 9 16.0309 9C14.7487 9 13.7093 10.0552 13.7093 11.3568C13.7093 11.6901 13.7774 12.0073 13.9004 12.2947C13.4784 11.705 12.7937 11.3216 12.0208 11.3216C10.7386 11.3216 9.69922 12.3768 9.69922 13.6784C9.69922 14.8409 10.5283 15.8068 11.619 16C10.5283 16.1932 9.69922 17.1591 9.69922 18.3216C9.69922 19.6232 10.7386 20.6784 12.0208 20.6784C12.7937 20.6784 13.4784 20.295 13.9004 19.7053C13.7774 19.9927 13.7093 20.3099 13.7093 20.6432C13.7093 21.9448 14.7487 23 16.0309 23C17.313 23 18.3525 21.9448 18.3525 20.6432C18.3525 20.3099 18.2843 19.9927 18.1614 19.7053C18.5833 20.295 19.268 20.6784 20.0409 20.6784C21.3231 20.6784 22.3626 19.6232 22.3626 18.3216C22.3626 17.1591 21.5334 16.1932 20.4427 16C21.5334 15.8068 22.3626 14.8409 22.3626 13.6784C22.3626 12.3768 21.3231 11.3216 20.0409 11.3216C19.268 11.3216 18.5833 11.705 18.1614 12.2947ZM17.9104 19.2596C17.7875 18.9721 17.7193 18.655 17.7193 18.3216C17.7193 17.1591 18.5484 16.1932 19.6391 16C18.5484 15.8068 17.7193 14.8409 17.7193 13.6784C17.7193 13.3451 17.7875 13.0279 17.9104 12.7405C17.4885 13.3302 16.8038 13.7136 16.0309 13.7136C15.258 13.7136 14.5733 13.3302 14.1513 12.7405C14.2743 13.0279 14.3424 13.3451 14.3424 13.6784C14.3424 14.8409 13.5133 15.8068 12.4227 16C13.5133 16.1932 14.3424 17.1591 14.3424 18.3216C14.3424 18.655 14.2743 18.9721 14.1513 19.2596C14.5733 18.6699 15.258 18.2864 16.0309 18.2864C16.8038 18.2864 17.4885 18.6699 17.9104 19.2596Z" fill="#F8FAFB"/>
</g>
<defs>
<clipPath id="clip0_6184_58372">
<rect width="14" height="14" fill="white" transform="translate(9 9)"/>
</clipPath>
</defs>
</svg>
