<svg width="110" height="30" viewBox="0 0 110 30" fill="none" xmlns="http://www.w3.org/2000/svg">
<rect y="0.898438" width="28" height="28" rx="14" fill="white"/>
<g clip-path="url(#clip0_6408_116586)">
<path fill-rule="evenodd" clip-rule="evenodd" d="M16.1624 11.1931C16.2853 10.9057 16.3535 10.5886 16.3535 10.2552C16.3535 8.9536 15.314 7.89844 14.0318 7.89844C12.7497 7.89844 11.7102 8.9536 11.7102 10.2552C11.7102 10.5886 11.7784 10.9057 11.9014 11.1931C11.4794 10.6035 10.7947 10.22 10.0218 10.22C8.73961 10.22 7.7002 11.2752 7.7002 12.5768C7.7002 13.7393 8.5293 14.7052 9.61996 14.8984C8.5293 15.0916 7.7002 16.0576 7.7002 17.2201C7.7002 18.5216 8.73961 19.5768 10.0218 19.5768C10.7947 19.5768 11.4794 19.1934 11.9014 18.6037C11.7784 18.8912 11.7102 19.2083 11.7102 19.5417C11.7102 20.8433 12.7497 21.8984 14.0318 21.8984C15.314 21.8984 16.3535 20.8433 16.3535 19.5417C16.3535 19.2083 16.2853 18.8912 16.1624 18.6037C16.5843 19.1934 17.269 19.5768 18.0419 19.5768C19.3241 19.5768 20.3635 18.5216 20.3635 17.2201C20.3635 16.0576 19.5344 15.0916 18.4437 14.8984C19.5344 14.7052 20.3635 13.7393 20.3635 12.5768C20.3635 11.2752 19.3241 10.22 18.0419 10.22C17.269 10.22 16.5843 10.6035 16.1624 11.1931ZM15.9114 18.158C15.7885 17.8706 15.7203 17.5534 15.7203 17.2201C15.7203 16.0576 16.5494 15.0916 17.6401 14.8984C16.5494 14.7052 15.7203 13.7393 15.7203 12.5768C15.7203 12.2435 15.7885 11.9263 15.9114 11.6389C15.4894 12.2286 14.8048 12.612 14.0318 12.612C13.259 12.612 12.5743 12.2286 12.1523 11.6389C12.2752 11.9263 12.3434 12.2435 12.3434 12.5768C12.3434 13.7393 11.5143 14.7052 10.4237 14.8984C11.5143 15.0916 12.3434 16.0576 12.3434 17.2201C12.3434 17.5534 12.2752 17.8706 12.1523 18.158C12.5743 17.5683 13.259 17.1848 14.0318 17.1848C14.8048 17.1848 15.4894 17.5683 15.9114 18.158Z" fill="#0D0D12"/>
</g>
<path d="M38.9492 23.3984V21.6641L48.0078 8.38672H38.8672V6.14844H51.207V7.88281L42.1367 21.1602H51.2773V23.3984H38.9492ZM57.2656 23.5742C56.4453 23.5742 55.7109 23.4375 55.0625 23.1641C54.4219 22.8828 53.9141 22.4688 53.5391 21.9219C53.1641 21.3672 52.9766 20.6797 52.9766 19.8594C52.9766 19.1562 53.1094 18.5781 53.375 18.125C53.6484 17.6719 54.0156 17.3125 54.4766 17.0469C54.9375 16.7812 55.4609 16.582 56.0469 16.4492C56.6328 16.3086 57.2383 16.2031 57.8633 16.1328C58.6445 16.0312 59.2578 15.9531 59.7031 15.8984C60.1562 15.8359 60.4766 15.7422 60.6641 15.6172C60.8594 15.4844 60.957 15.2695 60.957 14.9727V14.9141C60.957 14.3125 60.7383 13.8281 60.3008 13.4609C59.8711 13.0859 59.2656 12.8984 58.4844 12.8984C57.7188 12.8984 57.0938 13.082 56.6094 13.4492C56.1328 13.8164 55.8672 14.2812 55.8125 14.8438H53.2812C53.3281 14.0781 53.5664 13.3945 53.9961 12.793C54.4336 12.1914 55.0352 11.7148 55.8008 11.3633C56.5664 11.0117 57.4688 10.8359 58.5078 10.8359C59.5234 10.8359 60.4023 11.0078 61.1445 11.3516C61.8867 11.6953 62.457 12.1719 62.8555 12.7812C63.2617 13.3906 63.4648 14.1016 63.4648 14.9141V23.3984H61.0156V21.6406H60.9688C60.7891 21.9766 60.5469 22.293 60.2422 22.5898C59.9375 22.8867 59.543 23.125 59.0586 23.3047C58.5742 23.4844 57.9766 23.5742 57.2656 23.5742ZM57.8047 21.5703C58.5156 21.5703 59.1055 21.4453 59.5742 21.1953C60.0508 20.9375 60.4023 20.5977 60.6289 20.1758C60.8555 19.7461 60.9688 19.2773 60.9688 18.7695V17.3398C60.8047 17.4648 60.4375 17.582 59.8672 17.6914C59.2969 17.793 58.6836 17.8906 58.0273 17.9844C57.582 18.0469 57.1641 18.1523 56.7734 18.3008C56.3906 18.4414 56.0781 18.6406 55.8359 18.8984C55.6016 19.1484 55.4844 19.4844 55.4844 19.9062C55.4922 20.4297 55.7031 20.8398 56.1172 21.1367C56.5312 21.4258 57.0938 21.5703 57.8047 21.5703ZM68.3867 16.25V23.3984H65.8672V11.0234H68.3164V13.1094H68.3633C68.6367 12.4609 69.082 11.9219 69.6992 11.4922C70.3164 11.0547 71.1094 10.8359 72.0781 10.8359C72.9375 10.8359 73.7148 11.0195 74.4102 11.3867C75.1133 11.7539 75.6719 12.3008 76.0859 13.0273C76.5 13.7461 76.707 14.6406 76.707 15.7109V23.3984H74.1992V16.0156C74.1992 15.0312 73.9414 14.2852 73.4258 13.7773C72.918 13.2695 72.2305 13.0156 71.3633 13.0156C70.8086 13.0156 70.3047 13.1289 69.8516 13.3555C69.4062 13.582 69.0508 13.9336 68.7852 14.4102C68.5195 14.8867 68.3867 15.5 68.3867 16.25ZM85.4492 23.5859C84.6289 23.5859 83.8945 23.4141 83.2461 23.0703C82.5977 22.7188 82.0703 22.1953 81.6641 21.5H81.6172V23.3984H79.1094V6.14844H81.6289V12.9102H81.6758C82.043 12.2227 82.5586 11.707 83.2227 11.3633C83.8867 11.0117 84.6328 10.8359 85.4609 10.8359C86.4766 10.8359 87.375 11.0938 88.1562 11.6094C88.9453 12.1172 89.5586 12.8477 89.9961 13.8008C90.4414 14.7539 90.6641 15.8906 90.6641 17.2109C90.6641 18.5078 90.4453 19.6367 90.0078 20.5977C89.5703 21.5508 88.9609 22.2891 88.1797 22.8125C87.3984 23.3281 86.4883 23.5859 85.4492 23.5859ZM84.8516 21.4648C85.5078 21.4648 86.082 21.3047 86.5742 20.9844C87.0664 20.6562 87.4492 20.1758 87.7227 19.543C88.0039 18.9102 88.1445 18.1328 88.1445 17.2109C88.1445 16.2812 88.0039 15.5039 87.7227 14.8789C87.4492 14.2461 87.0664 13.7695 86.5742 13.4492C86.082 13.1289 85.5078 12.9688 84.8516 12.9688C84.1641 12.9688 83.5664 13.1445 83.0586 13.4961C82.5586 13.8398 82.1719 14.3281 81.8984 14.9609C81.625 15.5938 81.4883 16.3438 81.4883 17.2109C81.4883 18.0703 81.625 18.8203 81.8984 19.4609C82.1719 20.1016 82.5586 20.5977 83.0586 20.9492C83.5664 21.293 84.1641 21.4648 84.8516 21.4648ZM92.5391 23.3984V11.0234H95.0469V23.3984H92.5391ZM93.793 8.85547C93.3633 8.85547 92.9961 8.70703 92.6914 8.41016C92.3867 8.11328 92.2383 7.75781 92.2461 7.34375C92.2383 6.91406 92.3867 6.55469 92.6914 6.26562C92.9961 5.96875 93.3633 5.82031 93.793 5.82031C94.2227 5.82031 94.5859 5.96875 94.8828 6.26562C95.1797 6.55469 95.332 6.91406 95.3398 7.34375C95.332 7.75781 95.1797 8.11328 94.8828 8.41016C94.5859 8.70703 94.2227 8.85547 93.793 8.85547ZM102.898 23.5859C101.719 23.5859 100.68 23.3203 99.7812 22.7891C98.8828 22.25 98.1797 21.5039 97.6719 20.5508C97.1719 19.5898 96.9219 18.4844 96.9219 17.2344C96.9219 15.9688 97.1719 14.8555 97.6719 13.8945C98.1797 12.9336 98.8828 12.1836 99.7812 11.6445C100.68 11.1055 101.719 10.8359 102.898 10.8359C104.086 10.8359 105.125 11.1055 106.016 11.6445C106.914 12.1836 107.613 12.9336 108.113 13.8945C108.621 14.8555 108.875 15.9688 108.875 17.2344C108.875 18.4844 108.625 19.5898 108.125 20.5508C107.625 21.5039 106.926 22.25 106.027 22.7891C105.129 23.3203 104.086 23.5859 102.898 23.5859ZM102.898 21.4531C103.57 21.4531 104.164 21.2773 104.68 20.9258C105.195 20.5742 105.602 20.082 105.898 19.4492C106.195 18.8086 106.344 18.0703 106.344 17.2344C106.344 16.375 106.195 15.6289 105.898 14.9961C105.602 14.3555 105.195 13.8555 104.68 13.4961C104.172 13.1289 103.578 12.9453 102.898 12.9453C102.219 12.9453 101.621 13.125 101.105 13.4844C100.59 13.8438 100.184 14.3438 99.8867 14.9844C99.5977 15.625 99.4531 16.375 99.4531 17.2344C99.4609 18.0703 99.6094 18.8086 99.8984 19.4492C100.195 20.082 100.602 20.5742 101.117 20.9258C101.633 21.2773 102.227 21.4531 102.898 21.4531Z" fill="#F8FAFB"/>
<defs>
<clipPath id="clip0_6408_116586">
<rect width="14" height="14" fill="white" transform="translate(7 7.89844)"/>
</clipPath>
</defs>
</svg>
