<svg width="76" height="76" viewBox="0 0 76 76" fill="none" xmlns="http://www.w3.org/2000/svg">
<g filter="url(#filter0_d_6552_78319)">
<rect x="4" y="2" width="68" height="68" rx="10" fill="white" shape-rendering="crispEdges"/>
<path d="M28.5679 31.4196L27.721 29.7743C27.3834 29.1186 27.2146 28.7907 26.9618 28.5534C26.754 28.3584 26.5065 28.2089 26.2356 28.1146C25.9061 28 25.5322 28 24.7845 28C23.6853 28 23.1357 28 22.7067 28.2103C22.3558 28.3823 22.063 28.6503 21.8634 28.982C21.6194 29.3875 21.5803 29.9263 21.5019 31.0039L20.1524 49.5726C19.9336 52.5834 19.8242 54.0888 20.7296 55.0444C21.6349 56 23.1706 56 26.2418 56H49.7582C52.8294 56 54.365 56 55.2704 55.0444C56.1758 54.0888 56.0664 52.5834 55.8476 49.5726L54.498 31.0039C54.4198 29.9263 54.3806 29.3875 54.1366 28.982C53.937 28.6503 53.6442 28.3823 53.2934 28.2103C52.8644 28 52.3148 28 51.2156 28C50.4678 28 50.0938 28 49.7644 28.1146C49.4936 28.2089 49.246 28.3584 49.0382 28.5534C48.7854 28.7907 48.6166 29.1185 48.279 29.7743L47.4322 31.4196C47.1916 31.8869 47.0714 32.1204 46.9094 32.3054C46.634 32.6194 46.2662 32.8418 45.8568 32.9414C45.6158 33 45.3494 33 44.8166 33C44.2212 33 43.9236 33 43.6604 32.9294C43.2126 32.8092 42.8202 32.5422 42.5482 32.1728C42.3882 31.9556 42.2832 31.6818 42.0734 31.1342L41.8306 30.5C41.3846 29.3361 41.1618 28.7541 40.6924 28.4051C40.6466 28.371 40.5994 28.3388 40.5508 28.3087C40.053 28 39.4204 28 38.1548 28H37.8452C36.5796 28 35.947 28 35.4494 28.3087C35.4006 28.3388 35.3534 28.371 35.3076 28.4051C34.8382 28.7541 34.6154 29.3361 34.1694 30.5L33.9265 31.1342C33.7168 31.6818 33.6119 31.9556 33.4519 32.1728C33.1797 32.5422 32.7873 32.8092 32.3397 32.9294C32.0764 33 31.7787 33 31.1834 33C30.6506 33 30.3842 33 30.1432 32.9414C29.7338 32.8418 29.3659 32.6194 29.0906 32.3054C28.9286 32.1204 28.8084 31.8869 28.5679 31.4196Z" stroke="#2B6FD5" stroke-width="3" stroke-linecap="round" stroke-linejoin="round"/>
<path d="M38 22C40.982 23.3671 46 21 46 16C42.7156 17.2458 41.021 17.2285 38 16V22ZM38 22V28" stroke="#00398F" stroke-width="3" stroke-linecap="round" stroke-linejoin="round"/>
<path d="M32 56L33.2155 49.9222C33.5026 48.4868 33.6462 47.769 34.031 47.2384C34.987 45.9204 36.5224 46 38 46C39.4776 46 41.013 45.9204 41.969 47.2384C42.3538 47.769 42.4974 48.4868 42.7844 49.9222L44 56" stroke="#2B6FD5" stroke-width="3" stroke-linecap="round" stroke-linejoin="round"/>
<path d="M36 40H40" stroke="#00398F" stroke-width="3" stroke-linecap="round" stroke-linejoin="round"/>
</g>
<defs>
<filter id="filter0_d_6552_78319" x="0" y="0" width="76" height="76" filterUnits="userSpaceOnUse" color-interpolation-filters="sRGB">
<feFlood flood-opacity="0" result="BackgroundImageFix"/>
<feColorMatrix in="SourceAlpha" type="matrix" values="0 0 0 0 0 0 0 0 0 0 0 0 0 0 0 0 0 0 127 0" result="hardAlpha"/>
<feOffset dy="2"/>
<feGaussianBlur stdDeviation="2"/>
<feComposite in2="hardAlpha" operator="out"/>
<feColorMatrix type="matrix" values="0 0 0 0 0.0509804 0 0 0 0 0.0509804 0 0 0 0 0.0705882 0 0 0 0.15 0"/>
<feBlend mode="normal" in2="BackgroundImageFix" result="effect1_dropShadow_6552_78319"/>
<feBlend mode="normal" in="SourceGraphic" in2="effect1_dropShadow_6552_78319" result="shape"/>
</filter>
</defs>
</svg>
