<svg width="76" height="76" viewBox="0 0 76 76" fill="none" xmlns="http://www.w3.org/2000/svg">
<g filter="url(#filter0_d_6552_78307)">
<rect x="4" y="2" width="68" height="68" rx="10" fill="white" shape-rendering="crispEdges"/>
<path d="M54.464 32.108C55.424 31.0281 57.08 29.3961 56.9916 28.7315C57.0596 28.085 56.7096 27.4778 56.0098 26.2633L55.0228 24.5501C54.2762 23.2544 53.9028 22.6066 53.2676 22.3482C52.6326 22.0899 51.9142 22.2938 50.4776 22.7014L48.037 23.3888C47.1198 23.6003 46.1576 23.4804 45.32 23.0501L44.6462 22.6613C43.9282 22.2013 43.3758 21.5231 43.07 20.726L42.402 18.7312C41.963 17.4112 41.7434 16.7511 41.2206 16.3736C40.6978 15.9961 40.0034 15.9961 38.6148 15.9961H36.3852C34.9964 15.9961 34.302 15.9961 33.7795 16.3736C33.2567 16.7511 33.0371 17.4112 32.5979 18.7312L31.9301 20.726C31.6243 21.5231 31.0719 22.2013 30.3537 22.6613L29.6799 23.0501C28.8425 23.4804 27.8801 23.6003 26.9629 23.3888L24.5225 22.7014C23.0859 22.2938 22.3675 22.0899 21.7323 22.3482C21.0971 22.6066 20.7239 23.2544 19.9773 24.5501L18.9901 26.2633C18.2903 27.4778 17.9405 28.085 18.0083 28.7315C18.0763 29.3779 18.5447 29.8988 19.4815 30.9407L21.5437 33.246C22.0475 33.884 22.4055 34.996 22.4055 35.9956C22.4055 36.996 22.0477 38.1076 21.5437 38.7458L19.4815 41.0512C18.5447 42.093 18.0763 42.614 18.0083 43.2604C17.9405 43.907 18.2903 44.5142 18.9901 45.7286L19.9773 47.4418C20.7239 48.7374 21.0971 49.3854 21.7323 49.6436C22.3675 49.902 23.0859 49.6982 24.5225 49.2904L26.9629 48.603C27.8803 48.3914 28.8427 48.5116 29.6803 48.942L30.3539 49.3308C31.0721 49.7908 31.6243 50.4688 31.9299 51.266L32.5979 53.261C33.0371 54.581 33.2799 55.2672 33.68 55.556C33.8 55.6428 34.28 56.036 35.456 56" stroke="#2B6FD5" stroke-width="3" stroke-linecap="round"/>
<path d="M44 46.4362C44 46.4362 46 47.0042 47 49.0042C47 49.0042 49.1924 44.0042 52.016 43.0042" stroke="#00398F" stroke-width="3" stroke-linecap="round" stroke-linejoin="round"/>
<path d="M58 45.996C58 51.5188 53.5228 55.996 48 55.996C42.4772 55.996 38 51.5188 38 45.996C38 40.4732 42.4772 35.996 48 35.996C53.5228 35.996 58 40.4732 58 45.996Z" stroke="#2B6FD5" stroke-width="3" stroke-linecap="round"/>
<path d="M42.3198 30.884C40.6398 29.516 39.3198 28.988 37.3998 28.988C33.7997 29.036 30.5117 32.01 30.5117 35.876C30.5117 38.0074 31.1597 39.356 32.3837 40.772" stroke="#00398F" stroke-width="3" stroke-linecap="round"/>
</g>
<defs>
<filter id="filter0_d_6552_78307" x="0" y="0" width="76" height="76" filterUnits="userSpaceOnUse" color-interpolation-filters="sRGB">
<feFlood flood-opacity="0" result="BackgroundImageFix"/>
<feColorMatrix in="SourceAlpha" type="matrix" values="0 0 0 0 0 0 0 0 0 0 0 0 0 0 0 0 0 0 127 0" result="hardAlpha"/>
<feOffset dy="2"/>
<feGaussianBlur stdDeviation="2"/>
<feComposite in2="hardAlpha" operator="out"/>
<feColorMatrix type="matrix" values="0 0 0 0 0.0509804 0 0 0 0 0.0509804 0 0 0 0 0.0705882 0 0 0 0.15 0"/>
<feBlend mode="normal" in2="BackgroundImageFix" result="effect1_dropShadow_6552_78307"/>
<feBlend mode="normal" in="SourceGraphic" in2="effect1_dropShadow_6552_78307" result="shape"/>
</filter>
</defs>
</svg>
